<svg xmlns="http://www.w3.org/2000/svg" xmlns:xlink="http://www.w3.org/1999/xlink" version="1.1" width="498.88pt" height="425.67158pt" viewBox="0 0 498.88 425.67158">
<defs>
<g id="font_0_45">
<path transform="matrix(.001,0,0,.001,0,0)" d="M54 359H361V217H54V359Z"/>
</g>
<g id="font_0_38">
<path transform="matrix(.001,0,0,.001,0,0)" d="M390 484 590 264C607 286 620 312 629 340 638 368 643 401 645 437H797C792 377 780 324 762 278 744 232 719 191 687 157L830 0H623L575 53C541 30 505 13 467 3 429-7 389-13 347-13 261-13 192 9 139 54 86 98 60 156 60 228 60 275 71 317 95 354 118 390 156 426 209 461 195 478 184 495 178 513 172 530 169 548 169 567 169 619 189 662 231 694 272 726 327 742 396 742 425 742 456 739 488 735 520 730 554 723 589 714V578C558 594 529 605 502 613 474 620 448 624 422 624 396 624 377 619 363 609 349 599 343 586 343 569 343 557 347 545 355 531 363 517 374 501 390 484ZM293 363C271 347 255 330 245 311 234 291 229 270 229 247 229 209 242 177 270 151 298 125 331 112 370 112 392 112 412 115 431 122 449 128 467 138 484 152L293 363Z"/>
</g>
<g id="font_0_58">
<path transform="matrix(.001,0,0,.001,0,0)" d="M112 547H288V358H112V547ZM112 189H288V0H112V189Z"/>
</g>
<g id="font_0_46">
<path transform="matrix(.001,0,0,.001,0,0)" d="M102 189H278V0H102V189Z"/>
</g>
<g id="font_0_126">
<path transform="matrix(.001,0,0,.001,0,0)" d="M732 415V296C697 270 665 251 636 240 607 228 577 223 546 223 511 223 470 232 424 251 419 253 415 254 413 255 411 256 407 258 402 260 352 280 311 290 281 290 252 290 224 283 196 271 168 258 138 238 106 212V331C140 357 172 375 201 387 230 398 260 404 292 404 326 404 367 394 414 375 418 373 422 372 424 371 426 370 430 369 436 367 486 347 526 337 557 337 585 337 612 343 640 355 668 367 698 387 732 415Z"/>
</g>
<g id="font_0_43">
<path transform="matrix(.001,0,0,.001,0,0)" d="M477 627V371H732V256H477V0H361V256H106V371H361V627H477Z"/>
</g>
<g id="font_0_47">
<path transform="matrix(.001,0,0,.001,0,0)" d="M257 729H365L108-92H0L257 729Z"/>
</g>
<g id="font_0_95">
<path transform="matrix(.001,0,0,.001,0,0)" d="M500-142V-235H0V-142H500Z"/>
</g>
<g id="font_0_68">
<path transform="matrix(.001,0,0,.001,0,0)" d="M280 587V142H347C423 142 482 161 523 199 563 237 584 292 584 365 584 437 563 492 523 530 483 568 424 587 347 587H280ZM92 729H290C400 729 483 721 537 705 591 689 638 663 677 625 711 592 736 554 753 511 769 468 778 419 778 365 778 310 769 261 753 218 736 174 711 136 677 104 637 66 590 39 536 23 481 7 399 0 290 0H92V729Z"/>
</g>
<g id="font_0_101">
<path transform="matrix(.001,0,0,.001,0,0)" d="M630 275V225H221C225 184 240 153 266 133 291 112 326 102 372 102 408 102 446 107 485 118 523 129 563 146 604 168V33C562 17 521 6 480-1 438-9 397-13 356-13 257-13 180 12 125 62 70 112 43 182 43 273 43 362 70 432 124 483 178 534 252 560 346 560 432 560 500 534 552 482 604 430 630 361 630 275ZM450 333C450 366 440 393 421 413 401 433 376 444 345 444 311 444 283 434 262 415 241 396 228 369 223 333H450Z"/>
</g>
<g id="font_0_108">
<path transform="matrix(.001,0,0,.001,0,0)" d="M84 760H259V0H84V760Z"/>
</g>
<g id="font_0_105">
<path transform="matrix(.001,0,0,.001,0,0)" d="M84 547H259V0H84V547ZM84 760H259V617H84V760Z"/>
</g>
<g id="font_0_109">
<path transform="matrix(.001,0,0,.001,0,0)" d="M591 456C613 490 639 515 669 533 699 551 733 560 770 560 832 560 880 540 913 502 946 463 963 407 963 333V0H787V285C787 289 788 294 788 298 788 302 788 309 788 318 788 356 782 384 771 402 759 419 741 428 716 428 682 428 657 414 639 387 621 359 611 320 611 269V0H435V285C435 345 429 384 419 402 409 419 390 428 364 428 330 428 304 414 286 387 268 359 259 320 259 269V0H83V547H259V467C280 497 305 520 333 536 361 552 391 560 425 560 462 560 495 550 524 532 553 514 575 488 591 456Z"/>
</g>
<g id="font_0_116">
<path transform="matrix(.001,0,0,.001,0,0)" d="M275 702V547H455V422H275V190C275 164 280 147 290 138 300 129 320 125 350 125H440V0H290C221 0 172 14 143 43 114 71 100 120 100 190V422H13V547H100V702H275Z"/>
</g>
<g id="font_0_114">
<path transform="matrix(.001,0,0,.001,0,0)" d="M490 398C474 405 459 410 444 414 429 417 414 419 399 419 354 419 319 404 295 376 271 347 259 306 259 252V0H84V547H259V457C281 493 306 519 336 535 365 551 400 560 441 560 447 560 453 559 460 559 466 559 476 558 490 556V398Z"/>
</g>
<g id="font_1_48">
<path transform="matrix(.001,0,0,.001,0,0)" d="M318 664C267 664 229 639 203 589 177 539 165 464 165 364 165 264 177 189 203 139 229 89 267 64 318 64 369 64 407 89 433 139 458 189 471 264 471 364 471 464 458 539 433 589 407 639 369 664 318 664ZM318 742C399 742 461 709 505 645 548 580 570 486 570 364 570 241 548 147 505 83 461 19 399-13 317-13 235-13 173 19 130 83 87 147 66 241 66 364 66 486 87 580 130 645 173 709 236 742 318 742Z"/>
</g>
<g id="font_1_46">
<path transform="matrix(.001,0,0,.001,0,0)" d="M107 124H210V0H107V124Z"/>
</g>
<g id="font_1_57">
<path transform="matrix(.001,0,0,.001,0,0)" d="M110 15V105C134 93 159 84 185 78 210 72 235 69 260 69 324 69 374 90 408 134 442 178 462 244 468 334 448 306 424 284 396 269 367 254 335 247 300 247 226 247 168 269 126 313 84 357 63 417 63 494 63 568 85 628 129 674 173 719 232 742 306 742 390 742 455 709 499 645 543 580 566 486 566 364 566 248 538 157 484 89 429 21 356-13 264-13 239-13 214-10 189-6 163-2 137 5 110 15ZM306 324C350 324 385 339 411 369 437 399 450 441 450 494 450 546 437 588 411 618 385 648 350 664 306 664 262 664 227 648 201 618 175 588 162 546 162 494 162 441 175 399 201 369 227 339 262 324 306 324Z"/>
</g>
<g id="font_1_50">
<path transform="matrix(.001,0,0,.001,0,0)" d="M192 83H536V0H73V83C110 121 161 173 226 239 290 304 331 346 348 365 380 400 402 430 414 455 426 479 433 504 433 528 433 566 419 598 392 622 365 646 330 659 286 659 255 659 222 653 188 643 154 632 117 616 78 594V694C118 710 155 722 189 730 223 738 255 742 284 742 359 742 419 723 464 685 509 647 532 597 532 534 532 504 526 475 515 449 504 422 484 390 454 354 446 344 420 317 376 272 332 227 271 164 192 83Z"/>
</g>
<g id="font_1_53">
<path transform="matrix(.001,0,0,.001,0,0)" d="M108 729H495V646H198V467C212 472 227 476 241 478 255 480 270 482 284 482 365 482 429 459 477 415 525 370 549 310 549 234 549 155 524 94 475 51 426 8 357-13 269-13 238-13 207-10 175-6 143-1 111 6 77 17V116C106 100 136 88 168 80 199 72 232 69 267 69 323 69 368 83 401 113 433 143 450 183 450 234 450 284 433 324 401 354 368 384 323 399 267 399 241 399 214 396 188 390 162 384 135 375 108 363V729Z"/>
</g>
<g id="font_1_55">
<path transform="matrix(.001,0,0,.001,0,0)" d="M82 729H551V687L286 0H183L432 646H82V729Z"/>
</g>
<g id="font_1_49">
<path transform="matrix(.001,0,0,.001,0,0)" d="M124 83H285V639L110 604V694L284 729H383V83H544V0H124V83Z"/>
</g>
<g id="font_0_79">
<path transform="matrix(.001,0,0,.001,0,0)" d="M425 606C367 606 323 584 291 542 259 500 244 440 244 364 244 287 259 227 291 185 323 143 367 122 425 122 482 122 526 143 558 185 590 227 606 287 606 364 606 440 590 500 558 542 526 584 482 606 425 606ZM425 742C542 742 634 708 700 641 766 574 800 482 800 364 800 246 766 153 700 87 634 20 542-13 425-13 308-13 216 20 150 87 83 153 50 246 50 364 50 482 83 574 150 641 216 708 308 742 425 742Z"/>
</g>
<g id="font_0_65">
<path transform="matrix(.001,0,0,.001,0,0)" d="M534 133H240L194 0H5L275 729H499L769 0H580L534 133ZM287 268H487L387 558 287 268Z"/>
</g>
<clipPath id="clip_2">
<path transform="matrix(1,0,0,-1,0,425.67158)" d="M73.7625 47.23125H424.9925V413.15129H73.7625Z"/>
</clipPath>
<clipPath id="clip_3">
<path transform="matrix(1,0,0,-1,89.7275,225.89742)" d="M-8-8H8V8H-8Z"/>
</clipPath>
<clipPath id="clip_4">
<path transform="matrix(1,0,0,-1,135.34178,266.37733)" d="M-8-8H8V8H-8Z"/>
</clipPath>
<clipPath id="clip_5">
<path transform="matrix(1,0,0,-1,180.95607,239.16202)" d="M-8-8H8V8H-8Z"/>
</clipPath>
<clipPath id="clip_6">
<path transform="matrix(1,0,0,-1,226.57036,243.27863)" d="M-8-8H8V8H-8Z"/>
</clipPath>
<clipPath id="clip_7">
<path transform="matrix(1,0,0,-1,272.18464,269.12174)" d="M-8-8H8V8H-8Z"/>
</clipPath>
<clipPath id="clip_8">
<path transform="matrix(1,0,0,-1,317.79893,268.66435)" d="M-8-8H8V8H-8Z"/>
</clipPath>
<clipPath id="clip_9">
<path transform="matrix(1,0,0,-1,363.4132,234.13065)" d="M-8-8H8V8H-8Z"/>
</clipPath>
<clipPath id="clip_10">
<path transform="matrix(1,0,0,-1,409.0275,232.98715)" d="M-8-8H8V8H-8Z"/>
</clipPath>
<g id="font_0_48">
<path transform="matrix(.001,0,0,.001,0,0)" d="M460 365C460 456 451 520 434 558 417 595 388 614 348 614 308 614 279 595 262 558 244 520 236 456 236 365 236 273 244 208 262 170 279 132 308 114 348 114 388 114 416 132 434 170 451 208 460 273 460 365ZM648 364C648 243 622 150 570 85 518 19 444-13 348-13 252-13 178 19 126 85 74 150 48 243 48 364 48 484 74 577 126 643 178 709 252 742 348 742 444 742 518 709 570 643 622 577 648 484 648 364Z"/>
</g>
<g id="font_0_57">
<path transform="matrix(.001,0,0,.001,0,0)" d="M100 16V151C130 137 158 126 186 119 213 112 240 109 267 109 323 109 366 124 398 155 429 186 447 232 453 294 431 278 407 265 382 257 357 249 330 245 301 245 226 245 166 266 120 310 74 353 52 410 52 482 52 560 77 623 128 670 179 717 247 741 333 741 428 741 502 709 554 645 606 581 632 490 632 373 632 252 601 157 540 89 479 21 396-13 290-13 256-13 223-10 192-6 160-1 130 6 100 16ZM332 367C364 367 389 377 406 399 422 420 431 452 431 495 431 537 422 569 406 591 389 612 364 623 332 623 299 623 274 612 258 591 241 569 233 537 233 495 233 452 241 420 258 399 274 377 299 367 332 367Z"/>
</g>
<g id="font_0_56">
<path transform="matrix(.001,0,0,.001,0,0)" d="M348 326C312 326 285 316 267 297 248 278 239 251 239 215 239 179 248 151 267 132 285 113 312 104 348 104 382 104 409 113 428 132 446 151 456 179 456 215 456 251 446 278 428 297 409 316 382 326 348 326ZM211 388C167 401 133 421 111 449 88 477 77 511 77 553 77 615 100 662 146 694 192 726 259 742 348 742 436 742 503 726 549 694 595 662 618 615 618 553 618 511 606 477 584 449 561 421 528 401 484 388 533 374 570 352 596 321 621 290 634 251 634 205 634 133 610 78 562 42 514 5 442-13 348-13 253-13 181 5 133 42 85 78 61 133 61 205 61 251 73 290 99 321 124 352 161 374 211 388ZM255 534C255 505 263 483 279 467 295 451 318 444 348 444 377 444 400 451 416 467 432 483 440 505 440 534 440 563 432 585 416 601 400 616 377 624 348 624 318 624 295 616 279 600 263 584 255 562 255 534Z"/>
</g>
<g id="font_0_51">
<path transform="matrix(.001,0,0,.001,0,0)" d="M466 393C515 380 552 358 578 327 603 295 616 255 616 207 616 135 588 80 533 43 477 5 397-13 291-13 253-13 216-10 178-4 140 1 103 10 67 22V167C102 149 137 136 172 127 206 118 240 114 274 114 324 114 362 122 388 140 414 157 428 182 428 214 428 247 414 272 387 289 360 306 320 315 267 315H192V436H271C318 436 353 443 376 458 399 472 411 495 411 526 411 554 399 575 377 591 355 606 323 614 282 614 252 614 221 610 190 603 159 596 128 586 98 573V711C135 721 172 729 208 734 244 739 280 742 316 742 410 742 481 726 528 695 575 664 599 617 599 555 599 512 587 477 565 450 543 423 510 404 466 393Z"/>
</g>
<g id="font_0_54">
<path transform="matrix(.001,0,0,.001,0,0)" d="M362 360C329 360 304 349 288 328 271 306 263 274 263 232 263 189 271 157 288 136 304 114 329 104 362 104 395 104 420 114 436 136 452 157 461 189 461 232 461 274 452 306 436 328 420 349 395 360 362 360ZM594 710V575C563 589 534 600 507 607 479 614 453 618 427 618 371 618 327 602 296 571 264 540 246 494 241 433 262 449 285 461 311 469 336 477 363 481 393 481 467 481 527 459 573 415 619 371 642 314 642 244 642 166 616 103 565 57 514 10 446-13 360-13 265-13 192 18 140 82 88 146 62 236 62 354 62 474 92 569 153 638 213 706 297 741 403 741 436 741 468 738 500 733 532 728 563 720 594 710Z"/>
</g>
<g id="font_0_49">
<path transform="matrix(.001,0,0,.001,0,0)" d="M117 130H283V601L113 566V694L282 729H461V130H627V0H117V130Z"/>
</g>
<g id="font_0_55">
<path transform="matrix(.001,0,0,.001,0,0)" d="M67 729H616V623L332 0H149L418 591H67V729Z"/>
</g>
<g id="font_0_52">
<path transform="matrix(.001,0,0,.001,0,0)" d="M368 574 162 269H368V574ZM337 729H546V269H650V133H546V0H368V133H45V294L337 729Z"/>
</g>
<g id="font_0_80">
<path transform="matrix(.001,0,0,.001,0,0)" d="M92 729H404C496 729 567 708 617 667 667 625 692 567 692 491 692 414 667 355 617 314 567 273 496 253 404 253H280V0H92V729ZM280 593V389H384C420 389 448 397 468 415 488 433 498 458 498 491 498 523 488 548 468 566 448 584 420 593 384 593H280Z"/>
</g>
<g id="font_0_97">
<path transform="matrix(.001,0,0,.001,0,0)" d="M329 246C292 246 264 239 246 227 228 215 219 197 219 173 219 151 226 133 241 121 256 108 277 102 303 102 336 102 364 113 386 137 408 161 420 190 420 226V246H329ZM596 312V0H420V81C396 47 370 23 341 9 311-5 276-13 234-13 177-13 131 3 96 36 60 68 43 111 43 164 43 228 65 275 109 305 153 335 222 350 317 350H420V364C420 391 409 411 387 424 365 437 331 444 285 444 247 444 212 440 180 432 148 424 118 413 91 399V532C128 541 165 548 203 553 241 557 279 560 317 560 415 560 486 540 530 501 574 462 596 399 596 312Z"/>
</g>
<g id="font_0_115">
<path transform="matrix(.001,0,0,.001,0,0)" d="M511 530V397C473 412 437 424 403 432 368 440 335 444 304 444 270 444 246 439 230 431 214 423 206 410 206 393 206 379 212 368 224 361 236 353 258 348 290 344L321 340C410 328 470 310 501 284 532 258 548 217 548 161 548 103 526 59 483 30 440 1 376-13 291-13 255-13 217-10 179-5 140 0 100 8 60 20V153C94 135 130 122 167 114 203 106 241 102 279 102 313 102 338 106 356 116 373 125 382 139 382 158 382 174 376 185 364 193 352 201 328 207 293 211L262 215C184 224 130 242 99 269 67 295 52 335 52 389 52 447 71 490 111 518 151 546 212 560 294 560 326 560 359 557 395 552 431 547 469 540 511 530Z"/>
</g>
<g id="font_0_111">
<path transform="matrix(.001,0,0,.001,0,0)" d="M344 435C305 435 275 421 255 393 235 365 225 325 225 273 225 220 235 180 255 152 275 124 305 111 344 111 382 111 411 124 431 152 451 180 462 220 462 273 462 325 451 365 431 393 411 421 382 435 344 435ZM344 560C438 560 511 534 564 484 617 433 644 363 644 273 644 183 617 112 564 62 511 12 438-13 344-13 250-13 176 12 123 62 69 112 43 183 43 273 43 363 69 433 123 484 176 534 250 560 344 560Z"/>
</g>
<g id="font_0_110">
<path transform="matrix(.001,0,0,.001,0,0)" d="M634 333V0H458V54 255C458 302 457 334 455 352 453 370 449 383 444 392 437 403 428 412 416 418 404 424 390 428 376 428 339 428 310 414 290 386 269 358 259 319 259 269V0H84V547H259V467C285 499 312 522 342 537 372 552 405 560 441 560 504 560 552 540 585 502 617 463 634 407 634 333Z"/>
</g>
<g id="font_0_32">
</g>
<g id="font_0_61">
<path transform="matrix(.001,0,0,.001,0,0)" d="M106 482H732V367H106V482ZM106 260H732V144H106V260Z"/>
</g>
<g id="font_1_51">
<path transform="matrix(.001,0,0,.001,0,0)" d="M406 393C453 383 490 362 516 330 542 298 556 258 556 212 556 140 531 84 482 45 432 6 362-13 271-13 240-13 208-10 176-4 144 1 110 10 76 22V117C103 101 133 89 166 81 198 73 232 69 268 69 330 69 377 81 409 105 441 129 458 165 458 212 458 254 443 288 413 312 383 336 341 349 287 349H202V430H291C339 430 376 439 402 459 428 478 441 506 441 543 441 580 427 609 401 629 374 649 336 659 287 659 260 659 231 656 200 650 169 644 135 635 98 623V711C135 721 170 729 203 734 235 739 266 742 296 742 370 742 429 725 473 691 517 657 539 611 539 553 539 513 527 479 504 451 481 423 448 403 406 393Z"/>
</g>
<g id="font_0_118">
<path transform="matrix(.001,0,0,.001,0,0)" d="M15 547H190L326 169 462 547H637L422 0H230L15 547Z"/>
</g>
<g id="font_0_103">
<path transform="matrix(.001,0,0,.001,0,0)" d="M456 93C432 61 405 37 376 22 347 7 314 0 276 0 209 0 154 26 110 79 66 131 45 198 45 280 45 361 66 428 110 480 154 532 209 559 276 559 314 559 347 551 376 536 405 521 432 498 456 466V547H632V55C632-32 604-99 548-145 492-191 412-215 307-215 273-215 240-212 208-207 176-201 144-193 112-183V-47C142-64 172-77 202-86 231-94 260-99 290-99 347-99 389-86 416-61 442-36 456 2 456 55V93ZM341 433C305 433 276 419 256 393 236 366 226 328 226 280 226 230 235 192 255 166 275 140 303 127 341 127 377 127 406 140 426 167 446 193 456 231 456 280 456 328 446 366 426 393 406 419 377 433 341 433Z"/>
</g>
<g id="font_0_107">
<path transform="matrix(.001,0,0,.001,0,0)" d="M84 760H259V346L460 547H663L396 296 684 0H472L259 228V0H84V760Z"/>
</g>
<g id="font_0_99">
<path transform="matrix(.001,0,0,.001,0,0)" d="M526 530V387C502 403 478 415 454 423 430 431 405 435 380 435 331 435 293 420 266 392 238 364 225 324 225 273 225 221 238 181 266 153 293 125 331 111 380 111 407 111 433 115 458 123 482 131 505 143 526 159V16C498 6 470-1 442-6 414-10 386-13 358-13 259-13 182 12 126 62 70 112 43 183 43 273 43 363 70 433 126 484 182 534 259 560 358 560 386 560 414 557 442 552 470 547 498 540 526 530Z"/>
</g>
<g id="font_0_117">
<path transform="matrix(.001,0,0,.001,0,0)" d="M78 213V547H254V492C254 462 253 425 253 380 253 335 253 305 253 291 253 247 254 215 256 196 258 176 262 162 268 154 275 142 284 133 296 127 307 121 320 118 336 118 372 118 401 132 422 160 442 188 453 227 453 277V547H628V0H453V79C427 47 399 23 369 9 339-5 307-13 272-13 208-13 160 6 127 44 94 82 78 139 78 213Z"/>
</g>
<clipPath id="clip_11">
<path transform="matrix(1,0,0,-1,0,425.67158)" d="M73.7625 47.23125H424.9925V413.15129H73.7625Z"/>
</clipPath>
<clipPath id="clip_12">
<path transform="matrix(1,0,0,-1,89.7275,297.53135)" d="M-8-8H8V8H-8Z"/>
</clipPath>
<clipPath id="clip_13">
<path transform="matrix(1,0,0,-1,135.34178,126.97197)" d="M-8-8H8V8H-8Z"/>
</clipPath>
<clipPath id="clip_14">
<path transform="matrix(1,0,0,-1,180.95607,265.8183)" d="M-8-8H8V8H-8Z"/>
</clipPath>
<clipPath id="clip_15">
<path transform="matrix(1,0,0,-1,226.57036,339.61219)" d="M-8-8H8V8H-8Z"/>
</clipPath>
<clipPath id="clip_16">
<path transform="matrix(1,0,0,-1,272.18464,63.952455)" d="M-8-8H8V8H-8Z"/>
</clipPath>
<clipPath id="clip_17">
<path transform="matrix(1,0,0,-1,317.79893,235.32498)" d="M-8-8H8V8H-8Z"/>
</clipPath>
<clipPath id="clip_18">
<path transform="matrix(1,0,0,-1,363.4132,298.34455)" d="M-8-8H8V8H-8Z"/>
</clipPath>
<clipPath id="clip_19">
<path transform="matrix(1,0,0,-1,409.0275,340.01878)" d="M-8-8H8V8H-8Z"/>
</clipPath>
<g id="font_0_50">
<path transform="matrix(.001,0,0,.001,0,0)" d="M288 138H609V0H79V138L345 373C369 394 386 415 398 436 409 456 415 478 415 500 415 534 403 561 380 582 357 603 327 614 289 614 259 614 227 607 193 595 158 582 121 563 81 539V699C123 713 165 723 207 731 248 738 288 742 328 742 415 742 483 722 531 684 579 646 604 592 604 524 604 484 593 446 573 412 552 378 509 332 444 275L288 138Z"/>
</g>
</defs>
<path transform="matrix(1,0,0,-1,0,425.67158)" d="M0 0H498.88V425.67158H0Z" fill="#ffffff"/>
<path transform="matrix(1,0,0,-1,0,425.67158)" d="M73.7625 47.23125H424.9925V413.15126H73.7625Z" fill="#ffffff"/>
<path transform="matrix(1,0,0,-1,0,425.67158)" d="M89.7275 47.23125V43.73125"/>
<path transform="matrix(1,0,0,-1,0,425.67158)" stroke-width=".8" stroke-linecap="butt" stroke-linejoin="round" fill="none" stroke="#000000" d="M89.7275 47.23125V43.73125"/>
<use data-text="-" xlink:href="#font_0_45" transform="matrix(14,0,0,-14,86.82125,396.08094)"/>
<path transform="matrix(1,0,0,-1,0,425.67158)" d="M135.34178 47.23125V43.73125"/>
<path transform="matrix(1,0,0,-1,0,425.67158)" stroke-width=".8" stroke-linecap="butt" stroke-linejoin="round" fill="none" stroke="#000000" d="M135.34178 47.23125V43.73125"/>
<use data-text="&amp;" xlink:href="#font_0_38" transform="matrix(14,0,0,-14,129.24022,396.08094)"/>
<path transform="matrix(1,0,0,-1,0,425.67158)" d="M180.95607 47.23125V43.73125"/>
<path transform="matrix(1,0,0,-1,0,425.67158)" stroke-width=".8" stroke-linecap="butt" stroke-linejoin="round" fill="none" stroke="#000000" d="M180.95607 47.23125V43.73125"/>
<use data-text=":" xlink:href="#font_0_58" transform="matrix(14,0,0,-14,178.1592,396.08094)"/>
<path transform="matrix(1,0,0,-1,0,425.67158)" d="M226.57036 47.23125V43.73125"/>
<path transform="matrix(1,0,0,-1,0,425.67158)" stroke-width=".8" stroke-linecap="butt" stroke-linejoin="round" fill="none" stroke="#000000" d="M226.57036 47.23125V43.73125"/>
<use data-text="." xlink:href="#font_0_46" transform="matrix(14,0,0,-14,223.91411,396.08094)"/>
<path transform="matrix(1,0,0,-1,0,425.67158)" d="M272.18464 47.23125V43.73125"/>
<path transform="matrix(1,0,0,-1,0,425.67158)" stroke-width=".8" stroke-linecap="butt" stroke-linejoin="round" fill="none" stroke="#000000" d="M272.18464 47.23125V43.73125"/>
<use data-text="~" xlink:href="#font_0_126" transform="matrix(14,0,0,-14,266.31745,396.08094)"/>
<path transform="matrix(1,0,0,-1,0,425.67158)" d="M317.79893 47.23125V43.73125"/>
<path transform="matrix(1,0,0,-1,0,425.67158)" stroke-width=".8" stroke-linecap="butt" stroke-linejoin="round" fill="none" stroke="#000000" d="M317.79893 47.23125V43.73125"/>
<use data-text="+" xlink:href="#font_0_43" transform="matrix(14,0,0,-14,311.93174,396.08094)"/>
<path transform="matrix(1,0,0,-1,0,425.67158)" d="M363.4132 47.23125V43.73125"/>
<path transform="matrix(1,0,0,-1,0,425.67158)" stroke-width=".8" stroke-linecap="butt" stroke-linejoin="round" fill="none" stroke="#000000" d="M363.4132 47.23125V43.73125"/>
<use data-text="/" xlink:href="#font_0_47" transform="matrix(14,0,0,-14,360.85853,396.08094)"/>
<path transform="matrix(1,0,0,-1,0,425.67158)" d="M409.0275 47.23125V43.73125"/>
<path transform="matrix(1,0,0,-1,0,425.67158)" stroke-width=".8" stroke-linecap="butt" stroke-linejoin="round" fill="none" stroke="#000000" d="M409.0275 47.23125V43.73125"/>
<use data-text="_" xlink:href="#font_0_95" transform="matrix(14,0,0,-14,405.5275,395.6903)"/>
<use data-text="D" xlink:href="#font_0_68" transform="matrix(16,0,0,-16,207.54157,415.14344)"/>
<use data-text="e" xlink:href="#font_0_101" transform="matrix(16,0,0,-16,220.82157,415.14344)"/>
<use data-text="l" xlink:href="#font_0_108" transform="matrix(16,0,0,-16,231.66957,415.14344)"/>
<use data-text="i" xlink:href="#font_0_105" transform="matrix(16,0,0,-16,237.15756,415.14344)"/>
<use data-text="m" xlink:href="#font_0_109" transform="matrix(16,0,0,-16,242.64557,415.14344)"/>
<use data-text="i" xlink:href="#font_0_105" transform="matrix(16,0,0,-16,259.31758,415.14344)"/>
<use data-text="t" xlink:href="#font_0_116" transform="matrix(16,0,0,-16,264.80558,415.14344)"/>
<use data-text="e" xlink:href="#font_0_101" transform="matrix(16,0,0,-16,272.45356,415.14344)"/>
<use data-text="r" xlink:href="#font_0_114" transform="matrix(16,0,0,-16,283.30158,415.14344)"/>
<path transform="matrix(1,0,0,-1,0,425.67158)" d="M73.7625 47.23125H70.2625"/>
<path transform="matrix(1,0,0,-1,0,425.67158)" stroke-width=".8" stroke-linecap="butt" stroke-linejoin="round" fill="none" stroke="#000000" d="M73.7625 47.23125H70.2625"/>
<use data-text="0" xlink:href="#font_1_48" transform="matrix(14,0,0,-14,26.684376,383.76063)" fill="#1f77b4"/>
<use data-text="." xlink:href="#font_1_46" transform="matrix(14,0,0,-14,35.588376,383.76063)" fill="#1f77b4"/>
<use data-text="9" xlink:href="#font_1_57" transform="matrix(14,0,0,-14,40.040376,383.76063)" fill="#1f77b4"/>
<use data-text="0" xlink:href="#font_1_48" transform="matrix(14,0,0,-14,48.944379,383.76063)" fill="#1f77b4"/>
<use data-text="0" xlink:href="#font_1_48" transform="matrix(14,0,0,-14,57.848379,383.76063)" fill="#1f77b4"/>
<path transform="matrix(1,0,0,-1,0,425.67158)" d="M73.7625 92.97125H70.2625"/>
<path transform="matrix(1,0,0,-1,0,425.67158)" stroke-width=".8" stroke-linecap="butt" stroke-linejoin="round" fill="none" stroke="#000000" d="M73.7625 92.97125H70.2625"/>
<use data-text="0" xlink:href="#font_1_48" transform="matrix(14,0,0,-14,26.684376,338.02064)" fill="#1f77b4"/>
<use data-text="." xlink:href="#font_1_46" transform="matrix(14,0,0,-14,35.588376,338.02064)" fill="#1f77b4"/>
<use data-text="9" xlink:href="#font_1_57" transform="matrix(14,0,0,-14,40.040376,338.02064)" fill="#1f77b4"/>
<use data-text="2" xlink:href="#font_1_50" transform="matrix(14,0,0,-14,48.944379,338.02064)" fill="#1f77b4"/>
<use data-text="5" xlink:href="#font_1_53" transform="matrix(14,0,0,-14,57.848379,338.02064)" fill="#1f77b4"/>
<path transform="matrix(1,0,0,-1,0,425.67158)" d="M73.7625 138.71125H70.2625"/>
<path transform="matrix(1,0,0,-1,0,425.67158)" stroke-width=".8" stroke-linecap="butt" stroke-linejoin="round" fill="none" stroke="#000000" d="M73.7625 138.71125H70.2625"/>
<use data-text="0" xlink:href="#font_1_48" transform="matrix(14,0,0,-14,26.684376,292.28065)" fill="#1f77b4"/>
<use data-text="." xlink:href="#font_1_46" transform="matrix(14,0,0,-14,35.588376,292.28065)" fill="#1f77b4"/>
<use data-text="9" xlink:href="#font_1_57" transform="matrix(14,0,0,-14,40.040376,292.28065)" fill="#1f77b4"/>
<use data-text="5" xlink:href="#font_1_53" transform="matrix(14,0,0,-14,48.944379,292.28065)" fill="#1f77b4"/>
<use data-text="0" xlink:href="#font_1_48" transform="matrix(14,0,0,-14,57.848379,292.28065)" fill="#1f77b4"/>
<path transform="matrix(1,0,0,-1,0,425.67158)" d="M73.7625 184.45125H70.2625"/>
<path transform="matrix(1,0,0,-1,0,425.67158)" stroke-width=".8" stroke-linecap="butt" stroke-linejoin="round" fill="none" stroke="#000000" d="M73.7625 184.45125H70.2625"/>
<use data-text="0" xlink:href="#font_1_48" transform="matrix(14,0,0,-14,26.684376,246.54064)" fill="#1f77b4"/>
<use data-text="." xlink:href="#font_1_46" transform="matrix(14,0,0,-14,35.588376,246.54064)" fill="#1f77b4"/>
<use data-text="9" xlink:href="#font_1_57" transform="matrix(14,0,0,-14,40.040376,246.54064)" fill="#1f77b4"/>
<use data-text="7" xlink:href="#font_1_55" transform="matrix(14,0,0,-14,48.944379,246.54064)" fill="#1f77b4"/>
<use data-text="5" xlink:href="#font_1_53" transform="matrix(14,0,0,-14,57.848379,246.54064)" fill="#1f77b4"/>
<path transform="matrix(1,0,0,-1,0,425.67158)" d="M73.7625 230.19126H70.2625"/>
<path transform="matrix(1,0,0,-1,0,425.67158)" stroke-width=".8" stroke-linecap="butt" stroke-linejoin="round" fill="none" stroke="#000000" d="M73.7625 230.19126H70.2625"/>
<use data-text="1" xlink:href="#font_1_49" transform="matrix(14,0,0,-14,26.684376,200.80063)" fill="#1f77b4"/>
<use data-text="." xlink:href="#font_1_46" transform="matrix(14,0,0,-14,35.588376,200.80063)" fill="#1f77b4"/>
<use data-text="0" xlink:href="#font_1_48" transform="matrix(14,0,0,-14,40.040376,200.80063)" fill="#1f77b4"/>
<use data-text="0" xlink:href="#font_1_48" transform="matrix(14,0,0,-14,48.944379,200.80063)" fill="#1f77b4"/>
<use data-text="0" xlink:href="#font_1_48" transform="matrix(14,0,0,-14,57.848379,200.80063)" fill="#1f77b4"/>
<path transform="matrix(1,0,0,-1,0,425.67158)" d="M73.7625 275.93125H70.2625"/>
<path transform="matrix(1,0,0,-1,0,425.67158)" stroke-width=".8" stroke-linecap="butt" stroke-linejoin="round" fill="none" stroke="#000000" d="M73.7625 275.93125H70.2625"/>
<use data-text="1" xlink:href="#font_1_49" transform="matrix(14,0,0,-14,26.684376,155.06064)" fill="#1f77b4"/>
<use data-text="." xlink:href="#font_1_46" transform="matrix(14,0,0,-14,35.588376,155.06064)" fill="#1f77b4"/>
<use data-text="0" xlink:href="#font_1_48" transform="matrix(14,0,0,-14,40.040376,155.06064)" fill="#1f77b4"/>
<use data-text="2" xlink:href="#font_1_50" transform="matrix(14,0,0,-14,48.944379,155.06064)" fill="#1f77b4"/>
<use data-text="5" xlink:href="#font_1_53" transform="matrix(14,0,0,-14,57.848379,155.06064)" fill="#1f77b4"/>
<path transform="matrix(1,0,0,-1,0,425.67158)" d="M73.7625 321.67127H70.2625"/>
<path transform="matrix(1,0,0,-1,0,425.67158)" stroke-width=".8" stroke-linecap="butt" stroke-linejoin="round" fill="none" stroke="#000000" d="M73.7625 321.67127H70.2625"/>
<use data-text="1" xlink:href="#font_1_49" transform="matrix(14,0,0,-14,26.684376,109.32062)" fill="#1f77b4"/>
<use data-text="." xlink:href="#font_1_46" transform="matrix(14,0,0,-14,35.588376,109.32062)" fill="#1f77b4"/>
<use data-text="0" xlink:href="#font_1_48" transform="matrix(14,0,0,-14,40.040376,109.32062)" fill="#1f77b4"/>
<use data-text="5" xlink:href="#font_1_53" transform="matrix(14,0,0,-14,48.944379,109.32062)" fill="#1f77b4"/>
<use data-text="0" xlink:href="#font_1_48" transform="matrix(14,0,0,-14,57.848379,109.32062)" fill="#1f77b4"/>
<path transform="matrix(1,0,0,-1,0,425.67158)" d="M73.7625 367.41127H70.2625"/>
<path transform="matrix(1,0,0,-1,0,425.67158)" stroke-width=".8" stroke-linecap="butt" stroke-linejoin="round" fill="none" stroke="#000000" d="M73.7625 367.41127H70.2625"/>
<use data-text="1" xlink:href="#font_1_49" transform="matrix(14,0,0,-14,26.684376,63.580629)" fill="#1f77b4"/>
<use data-text="." xlink:href="#font_1_46" transform="matrix(14,0,0,-14,35.588376,63.580629)" fill="#1f77b4"/>
<use data-text="0" xlink:href="#font_1_48" transform="matrix(14,0,0,-14,40.040376,63.580629)" fill="#1f77b4"/>
<use data-text="7" xlink:href="#font_1_55" transform="matrix(14,0,0,-14,48.944379,63.580629)" fill="#1f77b4"/>
<use data-text="5" xlink:href="#font_1_53" transform="matrix(14,0,0,-14,57.848379,63.580629)" fill="#1f77b4"/>
<path transform="matrix(1,0,0,-1,0,425.67158)" d="M73.7625 413.15126H70.2625"/>
<path transform="matrix(1,0,0,-1,0,425.67158)" stroke-width=".8" stroke-linecap="butt" stroke-linejoin="round" fill="none" stroke="#000000" d="M73.7625 413.15126H70.2625"/>
<use data-text="1" xlink:href="#font_1_49" transform="matrix(14,0,0,-14,26.684376,17.840638)" fill="#1f77b4"/>
<use data-text="." xlink:href="#font_1_46" transform="matrix(14,0,0,-14,35.588376,17.840638)" fill="#1f77b4"/>
<use data-text="1" xlink:href="#font_1_49" transform="matrix(14,0,0,-14,40.040376,17.840638)" fill="#1f77b4"/>
<use data-text="0" xlink:href="#font_1_48" transform="matrix(14,0,0,-14,48.944379,17.840638)" fill="#1f77b4"/>
<use data-text="0" xlink:href="#font_1_48" transform="matrix(14,0,0,-14,57.848379,17.840638)" fill="#1f77b4"/>
<use data-text="O" xlink:href="#font_0_79" transform="matrix(0,-16,-16,-0,19.35625,214.48813)" fill="#1f77b4"/>
<use data-text="A" xlink:href="#font_0_65" transform="matrix(0,-16,-16,-0,19.35625,201.31)" fill="#1f77b4"/>
<use data-text="A" xlink:href="#font_0_65" transform="matrix(0,-16,-16,-0,19.35625,188.926)" fill="#1f77b4"/>
<g clip-path="url(#clip_2)">
<path transform="matrix(1,0,0,-1,0,425.67158)" stroke-width="1.5" stroke-linecap="square" stroke-linejoin="round" fill="none" stroke="#1f77b4" d="M89.7275 199.77416 135.34178 159.29425 180.95607 186.50955 226.57036 182.39295 272.18464 156.54985 317.79893 157.00725 363.4132 191.54096 409.0275 192.68445"/>
<g clip-path="url(#clip_3)">
<path transform="matrix(1,0,0,-1,89.7275,225.89742)" d="M0-3C.795609-3 1.55874-2.683901 2.12132-2.12132 2.683901-1.55874 3-.795609 3 0 3 .795609 2.683901 1.55874 2.12132 2.12132 1.55874 2.683901 .795609 3 0 3-.795609 3-1.55874 2.683901-2.12132 2.12132-2.683901 1.55874-3 .795609-3 0-3-.795609-2.683901-1.55874-2.12132-2.12132-1.55874-2.683901-.795609-3 0-3Z" fill="#1f77b4"/>
<path transform="matrix(1,0,0,-1,89.7275,225.89742)" stroke-width="1" stroke-linecap="butt" stroke-linejoin="round" fill="none" stroke="#1f77b4" d="M0-3C.795609-3 1.55874-2.683901 2.12132-2.12132 2.683901-1.55874 3-.795609 3 0 3 .795609 2.683901 1.55874 2.12132 2.12132 1.55874 2.683901 .795609 3 0 3-.795609 3-1.55874 2.683901-2.12132 2.12132-2.683901 1.55874-3 .795609-3 0-3-.795609-2.683901-1.55874-2.12132-2.12132-1.55874-2.683901-.795609-3 0-3Z"/>
</g>
<g clip-path="url(#clip_4)">
<path transform="matrix(1,0,0,-1,135.34178,266.37733)" d="M0-3C.795609-3 1.55874-2.683901 2.12132-2.12132 2.683901-1.55874 3-.795609 3 0 3 .795609 2.683901 1.55874 2.12132 2.12132 1.55874 2.683901 .795609 3 0 3-.795609 3-1.55874 2.683901-2.12132 2.12132-2.683901 1.55874-3 .795609-3 0-3-.795609-2.683901-1.55874-2.12132-2.12132-1.55874-2.683901-.795609-3 0-3Z" fill="#1f77b4"/>
<path transform="matrix(1,0,0,-1,135.34178,266.37733)" stroke-width="1" stroke-linecap="butt" stroke-linejoin="round" fill="none" stroke="#1f77b4" d="M0-3C.795609-3 1.55874-2.683901 2.12132-2.12132 2.683901-1.55874 3-.795609 3 0 3 .795609 2.683901 1.55874 2.12132 2.12132 1.55874 2.683901 .795609 3 0 3-.795609 3-1.55874 2.683901-2.12132 2.12132-2.683901 1.55874-3 .795609-3 0-3-.795609-2.683901-1.55874-2.12132-2.12132-1.55874-2.683901-.795609-3 0-3Z"/>
</g>
<g clip-path="url(#clip_5)">
<path transform="matrix(1,0,0,-1,180.95607,239.16202)" d="M0-3C.795609-3 1.55874-2.683901 2.12132-2.12132 2.683901-1.55874 3-.795609 3 0 3 .795609 2.683901 1.55874 2.12132 2.12132 1.55874 2.683901 .795609 3 0 3-.795609 3-1.55874 2.683901-2.12132 2.12132-2.683901 1.55874-3 .795609-3 0-3-.795609-2.683901-1.55874-2.12132-2.12132-1.55874-2.683901-.795609-3 0-3Z" fill="#1f77b4"/>
<path transform="matrix(1,0,0,-1,180.95607,239.16202)" stroke-width="1" stroke-linecap="butt" stroke-linejoin="round" fill="none" stroke="#1f77b4" d="M0-3C.795609-3 1.55874-2.683901 2.12132-2.12132 2.683901-1.55874 3-.795609 3 0 3 .795609 2.683901 1.55874 2.12132 2.12132 1.55874 2.683901 .795609 3 0 3-.795609 3-1.55874 2.683901-2.12132 2.12132-2.683901 1.55874-3 .795609-3 0-3-.795609-2.683901-1.55874-2.12132-2.12132-1.55874-2.683901-.795609-3 0-3Z"/>
</g>
<g clip-path="url(#clip_6)">
<path transform="matrix(1,0,0,-1,226.57036,243.27863)" d="M0-3C.795609-3 1.55874-2.683901 2.12132-2.12132 2.683901-1.55874 3-.795609 3 0 3 .795609 2.683901 1.55874 2.12132 2.12132 1.55874 2.683901 .795609 3 0 3-.795609 3-1.55874 2.683901-2.12132 2.12132-2.683901 1.55874-3 .795609-3 0-3-.795609-2.683901-1.55874-2.12132-2.12132-1.55874-2.683901-.795609-3 0-3Z" fill="#1f77b4"/>
<path transform="matrix(1,0,0,-1,226.57036,243.27863)" stroke-width="1" stroke-linecap="butt" stroke-linejoin="round" fill="none" stroke="#1f77b4" d="M0-3C.795609-3 1.55874-2.683901 2.12132-2.12132 2.683901-1.55874 3-.795609 3 0 3 .795609 2.683901 1.55874 2.12132 2.12132 1.55874 2.683901 .795609 3 0 3-.795609 3-1.55874 2.683901-2.12132 2.12132-2.683901 1.55874-3 .795609-3 0-3-.795609-2.683901-1.55874-2.12132-2.12132-1.55874-2.683901-.795609-3 0-3Z"/>
</g>
<g clip-path="url(#clip_7)">
<path transform="matrix(1,0,0,-1,272.18464,269.12174)" d="M0-3C.795609-3 1.55874-2.683901 2.12132-2.12132 2.683901-1.55874 3-.795609 3 0 3 .795609 2.683901 1.55874 2.12132 2.12132 1.55874 2.683901 .795609 3 0 3-.795609 3-1.55874 2.683901-2.12132 2.12132-2.683901 1.55874-3 .795609-3 0-3-.795609-2.683901-1.55874-2.12132-2.12132-1.55874-2.683901-.795609-3 0-3Z" fill="#1f77b4"/>
<path transform="matrix(1,0,0,-1,272.18464,269.12174)" stroke-width="1" stroke-linecap="butt" stroke-linejoin="round" fill="none" stroke="#1f77b4" d="M0-3C.795609-3 1.55874-2.683901 2.12132-2.12132 2.683901-1.55874 3-.795609 3 0 3 .795609 2.683901 1.55874 2.12132 2.12132 1.55874 2.683901 .795609 3 0 3-.795609 3-1.55874 2.683901-2.12132 2.12132-2.683901 1.55874-3 .795609-3 0-3-.795609-2.683901-1.55874-2.12132-2.12132-1.55874-2.683901-.795609-3 0-3Z"/>
</g>
<g clip-path="url(#clip_8)">
<path transform="matrix(1,0,0,-1,317.79893,268.66435)" d="M0-3C.795609-3 1.55874-2.683901 2.12132-2.12132 2.683901-1.55874 3-.795609 3 0 3 .795609 2.683901 1.55874 2.12132 2.12132 1.55874 2.683901 .795609 3 0 3-.795609 3-1.55874 2.683901-2.12132 2.12132-2.683901 1.55874-3 .795609-3 0-3-.795609-2.683901-1.55874-2.12132-2.12132-1.55874-2.683901-.795609-3 0-3Z" fill="#1f77b4"/>
<path transform="matrix(1,0,0,-1,317.79893,268.66435)" stroke-width="1" stroke-linecap="butt" stroke-linejoin="round" fill="none" stroke="#1f77b4" d="M0-3C.795609-3 1.55874-2.683901 2.12132-2.12132 2.683901-1.55874 3-.795609 3 0 3 .795609 2.683901 1.55874 2.12132 2.12132 1.55874 2.683901 .795609 3 0 3-.795609 3-1.55874 2.683901-2.12132 2.12132-2.683901 1.55874-3 .795609-3 0-3-.795609-2.683901-1.55874-2.12132-2.12132-1.55874-2.683901-.795609-3 0-3Z"/>
</g>
<g clip-path="url(#clip_9)">
<path transform="matrix(1,0,0,-1,363.4132,234.13065)" d="M0-3C.795609-3 1.55874-2.683901 2.12132-2.12132 2.683901-1.55874 3-.795609 3 0 3 .795609 2.683901 1.55874 2.12132 2.12132 1.55874 2.683901 .795609 3 0 3-.795609 3-1.55874 2.683901-2.12132 2.12132-2.683901 1.55874-3 .795609-3 0-3-.795609-2.683901-1.55874-2.12132-2.12132-1.55874-2.683901-.795609-3 0-3Z" fill="#1f77b4"/>
<path transform="matrix(1,0,0,-1,363.4132,234.13065)" stroke-width="1" stroke-linecap="butt" stroke-linejoin="round" fill="none" stroke="#1f77b4" d="M0-3C.795609-3 1.55874-2.683901 2.12132-2.12132 2.683901-1.55874 3-.795609 3 0 3 .795609 2.683901 1.55874 2.12132 2.12132 1.55874 2.683901 .795609 3 0 3-.795609 3-1.55874 2.683901-2.12132 2.12132-2.683901 1.55874-3 .795609-3 0-3-.795609-2.683901-1.55874-2.12132-2.12132-1.55874-2.683901-.795609-3 0-3Z"/>
</g>
<g clip-path="url(#clip_10)">
<path transform="matrix(1,0,0,-1,409.0275,232.98715)" d="M0-3C.795609-3 1.55874-2.683901 2.12132-2.12132 2.683901-1.55874 3-.795609 3 0 3 .795609 2.683901 1.55874 2.12132 2.12132 1.55874 2.683901 .795609 3 0 3-.795609 3-1.55874 2.683901-2.12132 2.12132-2.683901 1.55874-3 .795609-3 0-3-.795609-2.683901-1.55874-2.12132-2.12132-1.55874-2.683901-.795609-3 0-3Z" fill="#1f77b4"/>
<path transform="matrix(1,0,0,-1,409.0275,232.98715)" stroke-width="1" stroke-linecap="butt" stroke-linejoin="round" fill="none" stroke="#1f77b4" d="M0-3C.795609-3 1.55874-2.683901 2.12132-2.12132 2.683901-1.55874 3-.795609 3 0 3 .795609 2.683901 1.55874 2.12132 2.12132 1.55874 2.683901 .795609 3 0 3-.795609 3-1.55874 2.683901-2.12132 2.12132-2.683901 1.55874-3 .795609-3 0-3-.795609-2.683901-1.55874-2.12132-2.12132-1.55874-2.683901-.795609-3 0-3Z"/>
</g>
</g>
<path transform="matrix(1,0,0,-1,0,425.67158)" stroke-width=".8" stroke-linecap="square" stroke-miterlimit="10" stroke-linejoin="miter" fill="none" stroke="#000000" d="M73.7625 47.23125V413.15126"/>
<path transform="matrix(1,0,0,-1,0,425.67158)" stroke-width=".8" stroke-linecap="square" stroke-miterlimit="10" stroke-linejoin="miter" fill="none" stroke="#000000" d="M424.9925 47.23125V413.15126"/>
<path transform="matrix(1,0,0,-1,0,425.67158)" stroke-width=".8" stroke-linecap="square" stroke-miterlimit="10" stroke-linejoin="miter" fill="none" stroke="#000000" d="M73.7625 47.23125H424.9925"/>
<path transform="matrix(1,0,0,-1,0,425.67158)" stroke-width=".8" stroke-linecap="square" stroke-miterlimit="10" stroke-linejoin="miter" fill="none" stroke="#000000" d="M73.7625 413.15126H424.9925"/>
<use data-text="0" xlink:href="#font_0_48" transform="matrix(12,0,0,-12,70.75875,216.74942)" fill="#1f77b4"/>
<use data-text="." xlink:href="#font_0_46" transform="matrix(12,0,0,-12,79.11075,216.74942)" fill="#1f77b4"/>
<use data-text="9" xlink:href="#font_0_57" transform="matrix(12,0,0,-12,83.67075,216.74942)" fill="#1f77b4"/>
<use data-text="8" xlink:href="#font_0_56" transform="matrix(12,0,0,-12,92.02275,216.74942)" fill="#1f77b4"/>
<use data-text="3" xlink:href="#font_0_51" transform="matrix(12,0,0,-12,100.374759,216.74942)" fill="#1f77b4"/>
<use data-text="0" xlink:href="#font_0_48" transform="matrix(12,0,0,-12,116.37303,257.2293)" fill="#1f77b4"/>
<use data-text="." xlink:href="#font_0_46" transform="matrix(12,0,0,-12,124.72503,257.2293)" fill="#1f77b4"/>
<use data-text="9" xlink:href="#font_0_57" transform="matrix(12,0,0,-12,129.28504,257.2293)" fill="#1f77b4"/>
<use data-text="6" xlink:href="#font_0_54" transform="matrix(12,0,0,-12,137.63703,257.2293)" fill="#1f77b4"/>
<use data-text="1" xlink:href="#font_0_49" transform="matrix(12,0,0,-12,145.98903,257.2293)" fill="#1f77b4"/>
<use data-text="0" xlink:href="#font_0_48" transform="matrix(12,0,0,-12,161.98732,230.01403)" fill="#1f77b4"/>
<use data-text="." xlink:href="#font_0_46" transform="matrix(12,0,0,-12,170.33933,230.01403)" fill="#1f77b4"/>
<use data-text="9" xlink:href="#font_0_57" transform="matrix(12,0,0,-12,174.89933,230.01403)" fill="#1f77b4"/>
<use data-text="7" xlink:href="#font_0_55" transform="matrix(12,0,0,-12,183.25131,230.01403)" fill="#1f77b4"/>
<use data-text="6" xlink:href="#font_0_54" transform="matrix(12,0,0,-12,191.60332,230.01403)" fill="#1f77b4"/>
<use data-text="0" xlink:href="#font_0_48" transform="matrix(12,0,0,-12,207.60161,234.13062)" fill="#1f77b4"/>
<use data-text="." xlink:href="#font_0_46" transform="matrix(12,0,0,-12,215.95362,234.13062)" fill="#1f77b4"/>
<use data-text="9" xlink:href="#font_0_57" transform="matrix(12,0,0,-12,220.51361,234.13062)" fill="#1f77b4"/>
<use data-text="7" xlink:href="#font_0_55" transform="matrix(12,0,0,-12,228.8656,234.13062)" fill="#1f77b4"/>
<use data-text="4" xlink:href="#font_0_52" transform="matrix(12,0,0,-12,237.2176,234.13062)" fill="#1f77b4"/>
<use data-text="0" xlink:href="#font_0_48" transform="matrix(12,0,0,-12,253.2159,259.97373)" fill="#1f77b4"/>
<use data-text="." xlink:href="#font_0_46" transform="matrix(12,0,0,-12,261.5679,259.97373)" fill="#1f77b4"/>
<use data-text="9" xlink:href="#font_0_57" transform="matrix(12,0,0,-12,266.1279,259.97373)" fill="#1f77b4"/>
<use data-text="6" xlink:href="#font_0_54" transform="matrix(12,0,0,-12,274.4799,259.97373)" fill="#1f77b4"/>
<use data-text="0" xlink:href="#font_0_48" transform="matrix(12,0,0,-12,282.8319,259.97373)" fill="#1f77b4"/>
<use data-text="0" xlink:href="#font_0_48" transform="matrix(12,0,0,-12,298.83018,259.51634)" fill="#1f77b4"/>
<use data-text="." xlink:href="#font_0_46" transform="matrix(12,0,0,-12,307.18217,259.51634)" fill="#1f77b4"/>
<use data-text="9" xlink:href="#font_0_57" transform="matrix(12,0,0,-12,311.74217,259.51634)" fill="#1f77b4"/>
<use data-text="6" xlink:href="#font_0_54" transform="matrix(12,0,0,-12,320.09419,259.51634)" fill="#1f77b4"/>
<use data-text="0" xlink:href="#font_0_48" transform="matrix(12,0,0,-12,328.44618,259.51634)" fill="#1f77b4"/>
<use data-text="0" xlink:href="#font_0_48" transform="matrix(12,0,0,-12,344.44447,224.98262)" fill="#1f77b4"/>
<use data-text="." xlink:href="#font_0_46" transform="matrix(12,0,0,-12,352.79646,224.98262)" fill="#1f77b4"/>
<use data-text="9" xlink:href="#font_0_57" transform="matrix(12,0,0,-12,357.35646,224.98262)" fill="#1f77b4"/>
<use data-text="7" xlink:href="#font_0_55" transform="matrix(12,0,0,-12,365.70848,224.98262)" fill="#1f77b4"/>
<use data-text="9" xlink:href="#font_0_57" transform="matrix(12,0,0,-12,374.06047,224.98262)" fill="#1f77b4"/>
<use data-text="0" xlink:href="#font_0_48" transform="matrix(12,0,0,-12,390.05876,223.83913)" fill="#1f77b4"/>
<use data-text="." xlink:href="#font_0_46" transform="matrix(12,0,0,-12,398.41075,223.83913)" fill="#1f77b4"/>
<use data-text="9" xlink:href="#font_0_57" transform="matrix(12,0,0,-12,402.97074,223.83913)" fill="#1f77b4"/>
<use data-text="8" xlink:href="#font_0_56" transform="matrix(12,0,0,-12,411.32276,223.83913)" fill="#1f77b4"/>
<use data-text="0" xlink:href="#font_0_48" transform="matrix(12,0,0,-12,419.67475,223.83913)" fill="#1f77b4"/>
<path transform="matrix(1,0,0,-1,0,425.67158)" d="M266.4704 388.22599H422.0279V409.89286H266.4704Z" fill="#ffffff" fill-opacity=".6"/>
<use data-text="P" xlink:href="#font_0_80" transform="matrix(14,0,0,-14,270.5304,30.47934)"/>
<use data-text="e" xlink:href="#font_0_101" transform="matrix(14,0,0,-14,280.7924,30.47934)"/>
<use data-text="a" xlink:href="#font_0_97" transform="matrix(14,0,0,-14,290.2844,30.47934)"/>
<use data-text="r" xlink:href="#font_0_114" transform="matrix(14,0,0,-14,299.7344,30.47934)"/>
<use data-text="s" xlink:href="#font_0_115" transform="matrix(14,0,0,-14,306.6364,30.47934)"/>
<use data-text="o" xlink:href="#font_0_111" transform="matrix(14,0,0,-14,314.9664,30.47934)"/>
<use data-text="n" xlink:href="#font_0_110" transform="matrix(14,0,0,-14,324.5844,30.47934)"/>
<use data-text=" " xlink:href="#font_0_32" transform="matrix(14,0,0,-14,334.5524,30.47934)"/>
<use data-text="r" xlink:href="#font_0_114" transform="matrix(14,0,0,-14,339.4244,30.47934)"/>
<use data-text=" " xlink:href="#font_0_32" transform="matrix(14,0,0,-14,346.32643,30.47934)"/>
<use data-text="=" xlink:href="#font_0_61" transform="matrix(14,0,0,-14,351.1984,30.47934)"/>
<use data-text=" " xlink:href="#font_0_32" transform="matrix(14,0,0,-14,362.93043,30.47934)"/>
<use data-text="-" xlink:href="#font_0_45" transform="matrix(14,0,0,-14,367.8024,30.47934)"/>
<use data-text="0" xlink:href="#font_0_48" transform="matrix(14,0,0,-14,373.6124,30.47934)"/>
<use data-text="." xlink:href="#font_0_46" transform="matrix(14,0,0,-14,383.3564,30.47934)"/>
<use data-text="8" xlink:href="#font_0_56" transform="matrix(14,0,0,-14,388.6764,30.47934)"/>
<use data-text="1" xlink:href="#font_0_49" transform="matrix(14,0,0,-14,398.4204,30.47934)"/>
<use data-text="0" xlink:href="#font_0_48" transform="matrix(14,0,0,-14,408.16444,30.47934)"/>
<path transform="matrix(1,0,0,-1,0,425.67158)" d="M424.9925 57.395696H428.4925"/>
<path transform="matrix(1,0,0,-1,0,425.67158)" stroke-width=".8" stroke-linecap="butt" stroke-linejoin="round" fill="none" stroke="#000000" d="M424.9925 57.395696H428.4925"/>
<use data-text="3" xlink:href="#font_1_51" transform="matrix(14,0,0,-14,431.9925,373.5962)" fill="#d62728"/>
<use data-text="1" xlink:href="#font_1_49" transform="matrix(14,0,0,-14,440.89649,373.5962)" fill="#d62728"/>
<use data-text="." xlink:href="#font_1_46" transform="matrix(14,0,0,-14,449.8005,373.5962)" fill="#d62728"/>
<use data-text="2" xlink:href="#font_1_50" transform="matrix(14,0,0,-14,454.2525,373.5962)" fill="#d62728"/>
<use data-text="5" xlink:href="#font_1_53" transform="matrix(14,0,0,-14,463.1565,373.5962)" fill="#d62728"/>
<path transform="matrix(1,0,0,-1,0,425.67158)" d="M424.9925 108.21792H428.4925"/>
<path transform="matrix(1,0,0,-1,0,425.67158)" stroke-width=".8" stroke-linecap="butt" stroke-linejoin="round" fill="none" stroke="#000000" d="M424.9925 108.21792H428.4925"/>
<use data-text="3" xlink:href="#font_1_51" transform="matrix(14,0,0,-14,431.9925,322.77397)" fill="#d62728"/>
<use data-text="1" xlink:href="#font_1_49" transform="matrix(14,0,0,-14,440.89649,322.77397)" fill="#d62728"/>
<use data-text="." xlink:href="#font_1_46" transform="matrix(14,0,0,-14,449.8005,322.77397)" fill="#d62728"/>
<use data-text="5" xlink:href="#font_1_53" transform="matrix(14,0,0,-14,454.2525,322.77397)" fill="#d62728"/>
<use data-text="0" xlink:href="#font_1_48" transform="matrix(14,0,0,-14,463.1565,322.77397)" fill="#d62728"/>
<path transform="matrix(1,0,0,-1,0,425.67158)" d="M424.9925 159.04015H428.4925"/>
<path transform="matrix(1,0,0,-1,0,425.67158)" stroke-width=".8" stroke-linecap="butt" stroke-linejoin="round" fill="none" stroke="#000000" d="M424.9925 159.04015H428.4925"/>
<use data-text="3" xlink:href="#font_1_51" transform="matrix(14,0,0,-14,431.9925,271.95173)" fill="#d62728"/>
<use data-text="1" xlink:href="#font_1_49" transform="matrix(14,0,0,-14,440.89649,271.95173)" fill="#d62728"/>
<use data-text="." xlink:href="#font_1_46" transform="matrix(14,0,0,-14,449.8005,271.95173)" fill="#d62728"/>
<use data-text="7" xlink:href="#font_1_55" transform="matrix(14,0,0,-14,454.2525,271.95173)" fill="#d62728"/>
<use data-text="5" xlink:href="#font_1_53" transform="matrix(14,0,0,-14,463.1565,271.95173)" fill="#d62728"/>
<path transform="matrix(1,0,0,-1,0,425.67158)" d="M424.9925 209.86237H428.4925"/>
<path transform="matrix(1,0,0,-1,0,425.67158)" stroke-width=".8" stroke-linecap="butt" stroke-linejoin="round" fill="none" stroke="#000000" d="M424.9925 209.86237H428.4925"/>
<use data-text="3" xlink:href="#font_1_51" transform="matrix(14,0,0,-14,431.9925,221.12952)" fill="#d62728"/>
<use data-text="2" xlink:href="#font_1_50" transform="matrix(14,0,0,-14,440.89649,221.12952)" fill="#d62728"/>
<use data-text="." xlink:href="#font_1_46" transform="matrix(14,0,0,-14,449.8005,221.12952)" fill="#d62728"/>
<use data-text="0" xlink:href="#font_1_48" transform="matrix(14,0,0,-14,454.2525,221.12952)" fill="#d62728"/>
<use data-text="0" xlink:href="#font_1_48" transform="matrix(14,0,0,-14,463.1565,221.12952)" fill="#d62728"/>
<path transform="matrix(1,0,0,-1,0,425.67158)" d="M424.9925 260.68458H428.4925"/>
<path transform="matrix(1,0,0,-1,0,425.67158)" stroke-width=".8" stroke-linecap="butt" stroke-linejoin="round" fill="none" stroke="#000000" d="M424.9925 260.68458H428.4925"/>
<use data-text="3" xlink:href="#font_1_51" transform="matrix(14,0,0,-14,431.9925,170.3073)" fill="#d62728"/>
<use data-text="2" xlink:href="#font_1_50" transform="matrix(14,0,0,-14,440.89649,170.3073)" fill="#d62728"/>
<use data-text="." xlink:href="#font_1_46" transform="matrix(14,0,0,-14,449.8005,170.3073)" fill="#d62728"/>
<use data-text="2" xlink:href="#font_1_50" transform="matrix(14,0,0,-14,454.2525,170.3073)" fill="#d62728"/>
<use data-text="5" xlink:href="#font_1_53" transform="matrix(14,0,0,-14,463.1565,170.3073)" fill="#d62728"/>
<path transform="matrix(1,0,0,-1,0,425.67158)" d="M424.9925 311.5068H428.4925"/>
<path transform="matrix(1,0,0,-1,0,425.67158)" stroke-width=".8" stroke-linecap="butt" stroke-linejoin="round" fill="none" stroke="#000000" d="M424.9925 311.5068H428.4925"/>
<use data-text="3" xlink:href="#font_1_51" transform="matrix(14,0,0,-14,431.9925,119.48508)" fill="#d62728"/>
<use data-text="2" xlink:href="#font_1_50" transform="matrix(14,0,0,-14,440.89649,119.48508)" fill="#d62728"/>
<use data-text="." xlink:href="#font_1_46" transform="matrix(14,0,0,-14,449.8005,119.48508)" fill="#d62728"/>
<use data-text="5" xlink:href="#font_1_53" transform="matrix(14,0,0,-14,454.2525,119.48508)" fill="#d62728"/>
<use data-text="0" xlink:href="#font_1_48" transform="matrix(14,0,0,-14,463.1565,119.48508)" fill="#d62728"/>
<path transform="matrix(1,0,0,-1,0,425.67158)" d="M424.9925 362.32905H428.4925"/>
<path transform="matrix(1,0,0,-1,0,425.67158)" stroke-width=".8" stroke-linecap="butt" stroke-linejoin="round" fill="none" stroke="#000000" d="M424.9925 362.32905H428.4925"/>
<use data-text="3" xlink:href="#font_1_51" transform="matrix(14,0,0,-14,431.9925,68.66284)" fill="#d62728"/>
<use data-text="2" xlink:href="#font_1_50" transform="matrix(14,0,0,-14,440.89649,68.66284)" fill="#d62728"/>
<use data-text="." xlink:href="#font_1_46" transform="matrix(14,0,0,-14,449.8005,68.66284)" fill="#d62728"/>
<use data-text="7" xlink:href="#font_1_55" transform="matrix(14,0,0,-14,454.2525,68.66284)" fill="#d62728"/>
<use data-text="5" xlink:href="#font_1_53" transform="matrix(14,0,0,-14,463.1565,68.66284)" fill="#d62728"/>
<path transform="matrix(1,0,0,-1,0,425.67158)" d="M424.9925 413.15126H428.4925"/>
<path transform="matrix(1,0,0,-1,0,425.67158)" stroke-width=".8" stroke-linecap="butt" stroke-linejoin="round" fill="none" stroke="#000000" d="M424.9925 413.15126H428.4925"/>
<use data-text="3" xlink:href="#font_1_51" transform="matrix(14,0,0,-14,431.9925,17.840638)" fill="#d62728"/>
<use data-text="3" xlink:href="#font_1_51" transform="matrix(14,0,0,-14,440.89649,17.840638)" fill="#d62728"/>
<use data-text="." xlink:href="#font_1_46" transform="matrix(14,0,0,-14,449.8005,17.840638)" fill="#d62728"/>
<use data-text="0" xlink:href="#font_1_48" transform="matrix(14,0,0,-14,454.2525,17.840638)" fill="#d62728"/>
<use data-text="0" xlink:href="#font_1_48" transform="matrix(14,0,0,-14,463.1565,17.840638)" fill="#d62728"/>
<use data-text="A" xlink:href="#font_0_65" transform="matrix(0,-16,-16,-0,488.22688,289.13658)" fill="#d62728"/>
<use data-text="v" xlink:href="#font_0_118" transform="matrix(0,-16,-16,-0,488.22688,277.31507)" fill="#d62728"/>
<use data-text="e" xlink:href="#font_0_101" transform="matrix(0,-16,-16,-0,488.22688,266.88307)" fill="#d62728"/>
<use data-text="r" xlink:href="#font_0_114" transform="matrix(0,-16,-16,-0,488.22688,256.03507)" fill="#d62728"/>
<use data-text="a" xlink:href="#font_0_97" transform="matrix(0,-16,-16,-0,488.22688,248.14707)" fill="#d62728"/>
<use data-text="g" xlink:href="#font_0_103" transform="matrix(0,-16,-16,-0,488.22688,237.34706)" fill="#d62728"/>
<use data-text="e" xlink:href="#font_0_101" transform="matrix(0,-16,-16,-0,488.22688,225.89107)" fill="#d62728"/>
<use data-text=" " xlink:href="#font_0_32" transform="matrix(0,-16,-16,-0,488.22688,215.04306)" fill="#d62728"/>
<use data-text="t" xlink:href="#font_0_116" transform="matrix(0,-16,-16,-0,488.22688,209.47507)" fill="#d62728"/>
<use data-text="o" xlink:href="#font_0_111" transform="matrix(0,-16,-16,-0,488.22688,201.82706)" fill="#d62728"/>
<use data-text="k" xlink:href="#font_0_107" transform="matrix(0,-16,-16,-0,488.22688,190.83506)" fill="#d62728"/>
<use data-text="e" xlink:href="#font_0_101" transform="matrix(0,-16,-16,-0,488.22688,180.61693)" fill="#d62728"/>
<use data-text="n" xlink:href="#font_0_110" transform="matrix(0,-16,-16,-0,488.22688,169.76892)" fill="#d62728"/>
<use data-text=" " xlink:href="#font_0_32" transform="matrix(0,-16,-16,-0,488.22688,158.37693)" fill="#d62728"/>
<use data-text="c" xlink:href="#font_0_99" transform="matrix(0,-16,-16,-0,488.22688,152.80893)" fill="#d62728"/>
<use data-text="o" xlink:href="#font_0_111" transform="matrix(0,-16,-16,-0,488.22688,143.32093)" fill="#d62728"/>
<use data-text="u" xlink:href="#font_0_117" transform="matrix(0,-16,-16,-0,488.22688,132.32892)" fill="#d62728"/>
<use data-text="n" xlink:href="#font_0_110" transform="matrix(0,-16,-16,-0,488.22688,120.93692)" fill="#d62728"/>
<use data-text="t" xlink:href="#font_0_116" transform="matrix(0,-16,-16,-0,488.22688,109.54492)" fill="#d62728"/>
<g clip-path="url(#clip_11)">
<path transform="matrix(1,0,0,-1,0,425.67158)" stroke-width="1.5" stroke-linecap="square" stroke-linejoin="round" fill="none" stroke="#d62728" d="M89.7275 128.14023 135.34178 298.69963 180.95607 159.85329 226.57036 86.059429 272.18464 361.71916 317.79893 190.34664 363.4132 127.32707 409.0275 85.65285"/>
<g clip-path="url(#clip_12)">
<path transform="matrix(1,0,0,-1,89.7275,297.53135)" d="M-3-3H3V3H-3Z" fill="#d62728"/>
<path transform="matrix(1,0,0,-1,89.7275,297.53135)" stroke-width="1" stroke-linecap="butt" stroke-miterlimit="10" stroke-linejoin="miter" fill="none" stroke="#d62728" d="M-3-3H3V3H-3Z"/>
</g>
<g clip-path="url(#clip_13)">
<path transform="matrix(1,0,0,-1,135.34178,126.97197)" d="M-3-3H3V3H-3Z" fill="#d62728"/>
<path transform="matrix(1,0,0,-1,135.34178,126.97197)" stroke-width="1" stroke-linecap="butt" stroke-miterlimit="10" stroke-linejoin="miter" fill="none" stroke="#d62728" d="M-3-3H3V3H-3Z"/>
</g>
<g clip-path="url(#clip_14)">
<path transform="matrix(1,0,0,-1,180.95607,265.8183)" d="M-3-3H3V3H-3Z" fill="#d62728"/>
<path transform="matrix(1,0,0,-1,180.95607,265.8183)" stroke-width="1" stroke-linecap="butt" stroke-miterlimit="10" stroke-linejoin="miter" fill="none" stroke="#d62728" d="M-3-3H3V3H-3Z"/>
</g>
<g clip-path="url(#clip_15)">
<path transform="matrix(1,0,0,-1,226.57036,339.61219)" d="M-3-3H3V3H-3Z" fill="#d62728"/>
<path transform="matrix(1,0,0,-1,226.57036,339.61219)" stroke-width="1" stroke-linecap="butt" stroke-miterlimit="10" stroke-linejoin="miter" fill="none" stroke="#d62728" d="M-3-3H3V3H-3Z"/>
</g>
<g clip-path="url(#clip_16)">
<path transform="matrix(1,0,0,-1,272.18464,63.952455)" d="M-3-3H3V3H-3Z" fill="#d62728"/>
<path transform="matrix(1,0,0,-1,272.18464,63.952455)" stroke-width="1" stroke-linecap="butt" stroke-miterlimit="10" stroke-linejoin="miter" fill="none" stroke="#d62728" d="M-3-3H3V3H-3Z"/>
</g>
<g clip-path="url(#clip_17)">
<path transform="matrix(1,0,0,-1,317.79893,235.32498)" d="M-3-3H3V3H-3Z" fill="#d62728"/>
<path transform="matrix(1,0,0,-1,317.79893,235.32498)" stroke-width="1" stroke-linecap="butt" stroke-miterlimit="10" stroke-linejoin="miter" fill="none" stroke="#d62728" d="M-3-3H3V3H-3Z"/>
</g>
<g clip-path="url(#clip_18)">
<path transform="matrix(1,0,0,-1,363.4132,298.34455)" d="M-3-3H3V3H-3Z" fill="#d62728"/>
<path transform="matrix(1,0,0,-1,363.4132,298.34455)" stroke-width="1" stroke-linecap="butt" stroke-miterlimit="10" stroke-linejoin="miter" fill="none" stroke="#d62728" d="M-3-3H3V3H-3Z"/>
</g>
<g clip-path="url(#clip_19)">
<path transform="matrix(1,0,0,-1,409.0275,340.01878)" d="M-3-3H3V3H-3Z" fill="#d62728"/>
<path transform="matrix(1,0,0,-1,409.0275,340.01878)" stroke-width="1" stroke-linecap="butt" stroke-miterlimit="10" stroke-linejoin="miter" fill="none" stroke="#d62728" d="M-3-3H3V3H-3Z"/>
</g>
</g>
<path transform="matrix(1,0,0,-1,0,425.67158)" stroke-width=".8" stroke-linecap="square" stroke-miterlimit="10" stroke-linejoin="miter" fill="none" stroke="#000000" d="M73.7625 47.23125V413.15126"/>
<path transform="matrix(1,0,0,-1,0,425.67158)" stroke-width=".8" stroke-linecap="square" stroke-miterlimit="10" stroke-linejoin="miter" fill="none" stroke="#000000" d="M424.9925 47.23125V413.15126"/>
<path transform="matrix(1,0,0,-1,0,425.67158)" stroke-width=".8" stroke-linecap="square" stroke-miterlimit="10" stroke-linejoin="miter" fill="none" stroke="#000000" d="M73.7625 47.23125H424.9925"/>
<path transform="matrix(1,0,0,-1,0,425.67158)" stroke-width=".8" stroke-linecap="square" stroke-miterlimit="10" stroke-linejoin="miter" fill="none" stroke="#000000" d="M73.7625 413.15126H424.9925"/>
<use data-text="3" xlink:href="#font_0_51" transform="matrix(12,0,0,-12,74.930629,293.46559)" fill="#d62728"/>
<use data-text="1" xlink:href="#font_0_49" transform="matrix(12,0,0,-12,83.28262,293.46559)" fill="#d62728"/>
<use data-text="." xlink:href="#font_0_46" transform="matrix(12,0,0,-12,91.63463,293.46559)" fill="#d62728"/>
<use data-text="6" xlink:href="#font_0_54" transform="matrix(12,0,0,-12,96.194629,293.46559)" fill="#d62728"/>
<use data-text="3" xlink:href="#font_0_51" transform="matrix(12,0,0,-12,120.54491,122.90619)" fill="#d62728"/>
<use data-text="2" xlink:href="#font_0_50" transform="matrix(12,0,0,-12,128.89691,122.90619)" fill="#d62728"/>
<use data-text="." xlink:href="#font_0_46" transform="matrix(12,0,0,-12,137.2489,122.90619)" fill="#d62728"/>
<use data-text="4" xlink:href="#font_0_52" transform="matrix(12,0,0,-12,141.8089,122.90619)" fill="#d62728"/>
<use data-text="3" xlink:href="#font_0_51" transform="matrix(12,0,0,-12,166.1592,261.7525)" fill="#d62728"/>
<use data-text="1" xlink:href="#font_0_49" transform="matrix(12,0,0,-12,174.5112,261.7525)" fill="#d62728"/>
<use data-text="." xlink:href="#font_0_46" transform="matrix(12,0,0,-12,182.86319,261.7525)" fill="#d62728"/>
<use data-text="8" xlink:href="#font_0_56" transform="matrix(12,0,0,-12,187.42319,261.7525)" fill="#d62728"/>
<use data-text="3" xlink:href="#font_0_51" transform="matrix(12,0,0,-12,211.77349,335.54637)" fill="#d62728"/>
<use data-text="1" xlink:href="#font_0_49" transform="matrix(12,0,0,-12,220.12549,335.54637)" fill="#d62728"/>
<use data-text="." xlink:href="#font_0_46" transform="matrix(12,0,0,-12,228.47748,335.54637)" fill="#d62728"/>
<use data-text="4" xlink:href="#font_0_52" transform="matrix(12,0,0,-12,233.03748,335.54637)" fill="#d62728"/>
<use data-text="3" xlink:href="#font_0_51" transform="matrix(12,0,0,-12,257.38777,59.886629)" fill="#d62728"/>
<use data-text="2" xlink:href="#font_0_50" transform="matrix(12,0,0,-12,265.73976,59.886629)" fill="#d62728"/>
<use data-text="." xlink:href="#font_0_46" transform="matrix(12,0,0,-12,274.09178,59.886629)" fill="#d62728"/>
<use data-text="7" xlink:href="#font_0_55" transform="matrix(12,0,0,-12,278.65177,59.886629)" fill="#d62728"/>
<use data-text="3" xlink:href="#font_0_51" transform="matrix(12,0,0,-12,303.00205,231.25917)" fill="#d62728"/>
<use data-text="1" xlink:href="#font_0_49" transform="matrix(12,0,0,-12,311.35404,231.25917)" fill="#d62728"/>
<use data-text="." xlink:href="#font_0_46" transform="matrix(12,0,0,-12,319.70606,231.25917)" fill="#d62728"/>
<use data-text="9" xlink:href="#font_0_57" transform="matrix(12,0,0,-12,324.26606,231.25917)" fill="#d62728"/>
<use data-text="3" xlink:href="#font_0_51" transform="matrix(12,0,0,-12,348.61634,294.27873)" fill="#d62728"/>
<use data-text="1" xlink:href="#font_0_49" transform="matrix(12,0,0,-12,356.96833,294.27873)" fill="#d62728"/>
<use data-text="." xlink:href="#font_0_46" transform="matrix(12,0,0,-12,365.32035,294.27873)" fill="#d62728"/>
<use data-text="6" xlink:href="#font_0_54" transform="matrix(12,0,0,-12,369.88035,294.27873)" fill="#d62728"/>
<use data-text="3" xlink:href="#font_0_51" transform="matrix(12,0,0,-12,394.23063,335.95295)" fill="#d62728"/>
<use data-text="1" xlink:href="#font_0_49" transform="matrix(12,0,0,-12,402.5826,335.95295)" fill="#d62728"/>
<use data-text="." xlink:href="#font_0_46" transform="matrix(12,0,0,-12,410.93464,335.95295)" fill="#d62728"/>
<use data-text="4" xlink:href="#font_0_52" transform="matrix(12,0,0,-12,415.49464,335.95295)" fill="#d62728"/>
</svg>
