<svg xmlns="http://www.w3.org/2000/svg" width="311.733" height="201.533" viewBox="-72 -72 233.799 151.15"><defs><style>@import url(https://cdn.jsdelivr.net/npm/node-tikzjax@latest/css/fonts.css);</style></defs><g stroke="#000" stroke-miterlimit="10" stroke-width=".4"><path fill="none" d="M-72.07 6.68h228"/><path fill="none" stroke-width=".75" d="M149.232 9.147c2.985-1.417 5.715-2.242 8.198-2.467-2.483-.225-5.213-1.05-8.198-2.467"/><path fill="none" stroke-dasharray="0.84,2.51" d="M36.68-72.07V63.68"/><path fill="none" d="M-42.82 4.43v5.25M-20.32 4.43v5.25M2.18 4.43v5.25M24.68 4.43v5.25M47.18 4.43v5.25M69.68 4.43v5.25M92.18 4.43v5.25M114.68 4.43v5.25"/><path fill="none" stroke="#2e4ea7" d="M-42.82 4.43c20.25-15.75 47.25-16.5 67.5 0"/><path fill="#2e4ea7" stroke-opacity="0" stroke-width=".08" d="m-16.574-3.445 7.856-4.223-8.206-3.493 2.872 3.736Z"/><path fill="none" stroke="#9013fe" stroke-opacity=".55" d="M24.68 9.68c19.65 17.7 71.4 16.2 90 0"/><path fill="#9013fe" fill-opacity=".55" stroke-opacity="0" stroke-width=".08" d="m78.159 18.619-8.082 3.773 7.997 3.95-2.657-3.89Z"/><path fill="none" stroke="#4d9eeb" d="M47.18 4.43c18.9-13.8 48.15-15.3 67.5 0"/><path fill="#4d9eeb" stroke-opacity="0" stroke-width=".08" d="M88.981-10.713 81.125-6.49l8.206 3.494-2.872-3.736Z"/><path fill="none" stroke="#7468cf" d="M-42.82 9.68c23.4 16.2 69.9 15.45 90 0"/><path fill="#7468cf" stroke-opacity="0" stroke-width=".08" d="m-5.742 25.216 8.132-3.664-7.942-4.058 2.604 3.927Z"/><path fill="#2e4ea7" stroke="#2e4ea7" d="M101.21 43.842h9.69c1.26 0 2.28.698 2.28 1.56s-1.02 1.56-2.28 1.56h-9.69c-1.26 0-2.28-.697-2.28-1.56 0-.862 1.02-1.56 2.28-1.56Z"/><path fill="#4d9eeb" stroke="#4d9eeb" d="M101.21 54.237h9.69c1.26 0 2.28.705 2.28 1.56 0 .863-1.02 1.56-2.28 1.56h-9.69c-1.26 0-2.28-.697-2.28-1.56 0-.855 1.02-1.56 2.28-1.56Z"/><path fill="#7468cf" stroke="#7468cf" d="M101.21 64.64h9.69c1.26 0 2.28.697 2.28 1.56 0 .862-1.02 1.56-2.28 1.56h-9.69c-1.26 0-2.28-.698-2.28-1.56s1.02-1.56 2.28-1.56Z"/><path fill="#9013fe" fill-opacity=".55" stroke="#9013fe" stroke-opacity=".55" d="M101.21 75.56h9.69c1.26 0 2.28.697 2.28 1.56 0 .862-1.02 1.56-2.28 1.56h-9.69c-1.26 0-2.28-.698-2.28-1.56s1.02-1.56 2.28-1.56Z"/><g stroke="none"><text x="-200.32" y="-180.82" font-family="cmmi10" font-size="10" transform="translate(152.45 197.556)">a</text><text x="-195.034" y="-179.32" font-family="cmr7" font-size="7" transform="translate(152.45 197.556)">1</text></g><g stroke="none"><text x="-200.32" y="-180.82" font-family="cmmi10" font-size="10" transform="translate(219.95 198.306)">a</text><text x="-195.034" y="-179.32" font-family="cmmi7" font-size="7" transform="translate(219.95 198.306)">n</text></g><g stroke="none"><path d="M40.63-12.67h20.729v.4H40.63z"/><text x="-195.32" y="-180.92" font-family="cmmi10" font-size="10" transform="translate(240.95 178.25)">a</text><text x="-190.034" y="-179.42" font-family="cmmi7" font-size="7" transform="translate(240.95 178.25)">n</text></g><g stroke="none"><path d="M108.13-12.67h19.772v.4H108.13z"/><text x="-195.32" y="-180.92" font-family="cmmi10" font-size="10" transform="translate(308.45 178.25)">a</text><text x="-190.034" y="-179.42" font-family="cmr7" font-size="7" transform="translate(308.45 178.25)">1</text></g><g stroke="none"><text x="-195.32" y="-192.97" font-family="cmmi7" font-size="7" transform="translate(318.118 240.625)">T</text><text x="-189.52" y="-192.97" font-family="cmmi7" font-size="7" transform="translate(318.118 240.625)">y</text><text x="-185.214" y="-192.97" font-family="cmmi7" font-size="7" transform="translate(318.118 240.625)">pe</text><text x="-174.603" y="-192.97" font-family="cmmi7" font-size="7" transform="translate(318.118 240.625)">I</text><text x="-195.32" y="-184.97" font-family="cmmi7" font-size="7" transform="translate(318.118 240.625)">T</text><text x="-189.52" y="-184.97" font-family="cmmi7" font-size="7" transform="translate(318.118 240.625)">y</text><text x="-185.214" y="-184.97" font-family="cmmi7" font-size="7" transform="translate(318.118 240.625)">pe</text><text x="-174.603" y="-184.97" font-family="cmmi7" font-size="7" transform="translate(318.118 240.625)">I</text><text x="-170.514" y="-184.97" font-family="cmmi7" font-size="7" transform="translate(318.118 240.625)">I</text><text x="-195.32" y="-176.97" font-family="cmmi7" font-size="7" transform="translate(318.118 240.625)">T</text><text x="-189.52" y="-176.97" font-family="cmmi7" font-size="7" transform="translate(318.118 240.625)">y</text><text x="-185.214" y="-176.97" font-family="cmmi7" font-size="7" transform="translate(318.118 240.625)">pe</text><text x="-174.603" y="-176.97" font-family="cmmi7" font-size="7" transform="translate(318.118 240.625)">I</text><text x="-170.514" y="-176.97" font-family="cmmi7" font-size="7" transform="translate(318.118 240.625)">I</text><text x="-166.426" y="-176.97" font-family="cmmi7" font-size="7" transform="translate(318.118 240.625)">I</text><text x="-195.32" y="-168.97" font-family="cmmi7" font-size="7" transform="translate(318.118 240.625)">T</text><text x="-189.52" y="-168.97" font-family="cmmi7" font-size="7" transform="translate(318.118 240.625)">y</text><text x="-185.214" y="-168.97" font-family="cmmi7" font-size="7" transform="translate(318.118 240.625)">pe</text><text x="-174.603" y="-168.97" font-family="cmmi7" font-size="7" transform="translate(318.118 240.625)">I</text><text x="-170.514" y="-168.97" font-family="cmmi7" font-size="7" transform="translate(318.118 240.625)">V</text></g></g></svg>