<svg xmlns="http://www.w3.org/2000/svg" width="139.629" height="65.741" viewBox="-72 -72 104.722 49.306"><defs><style>@import url(https://cdn.jsdelivr.net/npm/node-tikzjax@latest/css/fonts.css);</style></defs><g stroke="#000" stroke-miterlimit="10" stroke-width=".4"><g stroke="none"><g stroke="none"><text x=".272" y="-81.27" font-family="cmmi10" font-size="10" transform="translate(-57.52 19.493)">V</text><text x="6.105" y="-79.77" font-family="cmr7" font-size="7" transform="translate(-57.52 19.493)">2</text></g><g stroke="none"><text x="64.633" y="-81.27" font-family="cmmi10" font-size="10" transform="translate(-68.236 19.493)">V</text><text x="70.466" y="-79.77" font-family="cmr7" font-size="7" transform="translate(-68.236 19.493)">1</text><text x="77.174" y="-81.27" font-family="cmsy10" font-size="10" transform="translate(-68.236 19.493)">[</text><text x="86.063" y="-81.27" font-family="cmmi10" font-size="10" transform="translate(-68.236 19.493)">V</text><text x="91.896" y="-79.77" font-family="cmr7" font-size="7" transform="translate(-68.236 19.493)">2</text></g><g stroke="none"><text x=".272" y="-47.617" font-family="cmmi10" font-size="10" transform="translate(-68.236 19.493)">V</text><text x="6.105" y="-46.117" font-family="cmr7" font-size="7" transform="translate(-68.236 19.493)">1</text><text x="12.813" y="-47.617" font-family="cmsy10" font-size="10" transform="translate(-68.236 19.493)">\</text><text x="21.702" y="-47.617" font-family="cmmi10" font-size="10" transform="translate(-68.236 19.493)">V</text><text x="27.535" y="-46.117" font-family="cmr7" font-size="7" transform="translate(-68.236 19.493)">2</text></g><g stroke="none"><text x="64.633" y="-47.617" font-family="cmmi10" font-size="10" transform="translate(-57.52 19.493)">V</text><text x="70.466" y="-46.117" font-family="cmr7" font-size="7" transform="translate(-57.52 19.493)">1</text></g></g><path fill="none" d="M-40.984-64.277H-8.51"/><path fill="none" stroke-linecap="round" d="M-40.984-66.237c-.685 0-1.24.439-1.24.98s.555.98 1.24.98"/><path fill="none" stroke-linecap="round" stroke-linejoin="round" d="M-10.389-66.677c.38 1.44 1.227 2.12 2.08 2.4-.853.28-1.7.96-2.08 2.4"/><path fill="none" d="M-52.09-40.257v-15.76"/><path fill="none" stroke-linecap="round" d="M-54.05-40.257c0 .685.44 1.24.98 1.24.542 0 .98-.555.98-1.24"/><path fill="none" stroke-linecap="round" stroke-linejoin="round" d="M-54.49-54.137c1.44-.38 2.12-1.227 2.4-2.08.28.853.96 1.7 2.4 2.08"/><path fill="none" d="M-30.27-30.624H2.207"/><path fill="none" stroke-linecap="round" d="M-30.27-32.584c-.684 0-1.239.439-1.239.98s.555.98 1.24.98"/><path fill="none" stroke-linecap="round" stroke-linejoin="round" d="M.326-33.024c.38 1.44 1.227 2.12 2.08 2.4-.853.28-1.7.96-2.08 2.4"/><path fill="none" d="M12.272-40.257v-15.76"/><path fill="none" stroke-linecap="round" d="M10.312-40.257c0 .685.438 1.24.98 1.24.54 0 .98-.555.98-1.24"/><path fill="none" stroke-linecap="round" stroke-linejoin="round" d="M9.872-54.137c1.44-.38 2.12-1.227 2.4-2.08.28.853.96 1.7 2.4 2.08"/></g></svg>