<svg xmlns="http://www.w3.org/2000/svg" width="163.659" height="69.757" viewBox="-72 -72 122.744 52.318"><defs><style>@import url(https://cdn.jsdelivr.net/npm/node-tikzjax@latest/css/fonts.css);</style></defs><g stroke="#000" stroke-miterlimit="10" stroke-width=".4"><g stroke="none"><text x="50.579" y="-80.353" stroke="none" font-family="cmmi10" font-size="10" transform="translate(-65.303 18.576)">C</text><g stroke="none"><text x="3.722" y="-47.534" font-family="cmmi10" font-size="10" transform="translate(-71.686 18.576)">F</text><text x="11.541" y="-47.534" font-family="cmr10" font-size="10" transform="translate(-71.686 18.576)">(</text><text x="15.43" y="-47.534" font-family="cmmi10" font-size="10" transform="translate(-71.686 18.576)">p</text><text x="20.462" y="-47.534" font-family="cmr10" font-size="10" transform="translate(-71.686 18.576)">)</text></g><g stroke="none"><text x="97.331" y="-47.534" font-family="cmmi10" font-size="10" transform="translate(-71.582 18.576)">F</text><text x="105.15" y="-47.534" font-family="cmr10" font-size="10" transform="translate(-71.582 18.576)">(</text><text x="109.039" y="-47.534" font-family="cmmi10" font-size="10" transform="translate(-71.582 18.576)">q</text><text x="113.862" y="-47.534" font-family="cmr10" font-size="10" transform="translate(-71.582 18.576)">)</text></g></g><path fill="none" d="m-45.003-40.317 25.445-17.824"/><path fill="none" stroke-linecap="round" stroke-linejoin="round" stroke-width=".399992" d="M-22.475-59.028c1.138.961 2.221 1.032 3.08.772-.537.719-.84 1.762-.326 3.16"/><g stroke="none"><text x="-10.898" y="-47.534" font-family="cmmi7" font-size="7" transform="translate(-30.6 -6.135)">i</text><text x="-8.069" y="-46.534" font-family="cmmi5" font-size="5" transform="translate(-30.6 -6.135)">p</text></g><path fill="none" d="M-42.83-31.457h63.673"/><path fill="none" stroke-linecap="round" stroke-linejoin="round" d="M18.963-33.857c.38 1.44 1.227 2.12 2.08 2.4-.853.28-1.7.96-2.08 2.4"/><g stroke="none"><text x="-10.898" y="-47.534" font-family="cmmi7" font-size="7" transform="translate(-13.24 23.68)">F</text><text x="-4.75" y="-47.534" font-family="cmr7" font-size="7" transform="translate(-13.24 23.68)">(</text><text x="-1.625" y="-47.534" font-family="cmmi7" font-size="7" transform="translate(-13.24 23.68)">p</text><text x="2.497" y="-47.534" font-family="cmsy7" font-size="7" transform="translate(-13.24 23.68)">∙</text><text x="8.748" y="-47.534" font-family="cmmi7" font-size="7" transform="translate(-13.24 23.68)">q</text><text x="12.664" y="-47.534" font-family="cmr7" font-size="7" transform="translate(-13.24 23.68)">)</text></g><path fill="none" d="m23.34-40.317-25.37-17.81"/><path fill="none" stroke-linecap="round" stroke-linejoin="round" stroke-width=".399984" d="M-1.87-55.084c.516-1.397.214-2.44-.323-3.159.859.261 1.943.191 3.08-.769"/><g stroke="none"><text x="-10.898" y="-47.534" font-family="cmmi7" font-size="7" transform="translate(23.743 -6.129)">i</text><text x="-8.069" y="-46.534" font-family="cmmi5" font-size="5" transform="translate(23.743 -6.129)">q</text></g></g></svg>