<svg xmlns="http://www.w3.org/2000/svg" width="146.222" height="70.185" viewBox="-72 -72 109.667 52.639"><defs><style>@import url(https://cdn.jsdelivr.net/npm/node-tikzjax@latest/css/fonts.css);</style></defs><g stroke="#000" stroke-miterlimit="10" stroke-width=".4"><g stroke="none"><g stroke="none"><text x="-2.02" y="-81.27" font-family="cmr10" font-size="10" transform="translate(-65.944 20.16)">(2</text><text x="6.869" y="-81.27" font-family="cmmi10" font-size="10" transform="translate(-65.944 20.16)">;</text><text x="11.313" y="-81.27" font-family="cmr10" font-size="10" transform="translate(-65.944 20.16)">3)</text></g><g stroke="none"><text x="-2.02" y="-45.951" font-family="cmr10" font-size="10" transform="translate(-65.944 20.16)">(1</text><text x="6.869" y="-45.951" font-family="cmmi10" font-size="10" transform="translate(-65.944 20.16)">;</text><text x="11.313" y="-45.951" font-family="cmr10" font-size="10" transform="translate(-65.944 20.16)">3)</text></g><g stroke="none"><text x="76.813" y="-45.951" font-family="cmr10" font-size="10" transform="translate(-65.944 20.16)">(1</text><text x="85.702" y="-45.951" font-family="cmmi10" font-size="10" transform="translate(-65.944 20.16)">;</text><text x="90.147" y="-45.951" font-family="cmr10" font-size="10" transform="translate(-65.944 20.16)">5)</text></g></g><path fill="none" d="M-56.853-37.15v-17.2"/><path fill="none" stroke-linecap="round" stroke-linejoin="round" d="M-59.253-52.47c1.44-.38 2.12-1.227 2.4-2.08.28.853.96 1.7 2.4 2.08"/><path fill="none" d="M-41.237-28.29h47.2"/><path fill="none" stroke-linecap="round" stroke-linejoin="round" d="M4.083-30.69c.38 1.44 1.227 2.12 2.08 2.4-.853.28-1.7.96-2.08 2.4"/></g></svg>