<svg xmlns="http://www.w3.org/2000/svg" width="95.556" height="72.852" viewBox="-72 -72 71.667 54.639"><defs><style>@import url(https://cdn.jsdelivr.net/npm/node-tikzjax@latest/css/fonts.css);</style></defs><g stroke="#000" stroke-miterlimit="10" stroke-width=".4"><g stroke="none"><g stroke="none"><text x="-21.02" y="-82.27" font-family="cmr10" font-size="10" transform="translate(-46.944 21.16)">(2</text><text x="-12.131" y="-82.27" font-family="cmmi10" font-size="10" transform="translate(-46.944 21.16)">;</text><text x="-7.687" y="-82.27" font-family="cmr10" font-size="10" transform="translate(-46.944 21.16)">3)</text></g><g stroke="none"><text x="19.813" y="-82.27" font-family="cmr10" font-size="10" transform="translate(-46.944 21.16)">(2</text><text x="28.702" y="-82.27" font-family="cmmi10" font-size="10" transform="translate(-46.944 21.16)">;</text><text x="33.147" y="-82.27" font-family="cmr10" font-size="10" transform="translate(-46.944 21.16)">4)</text></g><g stroke="none"><text x="-21.02" y="-44.951" font-family="cmr10" font-size="10" transform="translate(-46.944 21.16)">(1</text><text x="-12.131" y="-44.951" font-family="cmmi10" font-size="10" transform="translate(-46.944 21.16)">;</text><text x="-7.687" y="-44.951" font-family="cmr10" font-size="10" transform="translate(-46.944 21.16)">3)</text></g></g><path fill="none" d="M-41.237-63.61h9.2"/><path fill="none" stroke-linecap="round" stroke-linejoin="round" d="M-33.917-66.01c.38 1.44 1.227 2.12 2.08 2.4-.853.28-1.7.96-2.08 2.4"/><path fill="none" d="M-56.853-35.15v-19.2"/><path fill="none" stroke-linecap="round" stroke-linejoin="round" d="M-59.253-52.47c1.44-.38 2.12-1.227 2.4-2.08.28.853.96 1.7 2.4 2.08"/></g></svg>