<svg class="main-svg" xmlns="http://www.w3.org/2000/svg" xmlns:xlink="http://www.w3.org/1999/xlink" width="2400" height="900" style="" viewBox="0 0 1200 450"><rect x="0" y="0" width="1200" height="450" style="fill: rgb(255, 255, 255); fill-opacity: 1;"/><defs id="defs-886f5a"><g class="clips"><clipPath id="clip886f5axyplot" class="plotclip"><rect width="915" height="195"/></clipPath><clipPath class="axesclip" id="clip886f5ax"><rect x="80" y="0" width="915" height="450"/></clipPath><clipPath class="axesclip" id="clip886f5ay"><rect x="0" y="60" width="1200" height="195"/></clipPath><clipPath class="axesclip" id="clip886f5axy"><rect x="80" y="60" width="915" height="195"/></clipPath></g><g class="gradients"/><g class="patterns"/></defs><g class="bglayer"/><g class="layer-below"><g class="imagelayer"/><g class="shapelayer"/></g><g class="cartesianlayer"><g class="subplot xy"><g class="layer-subplot"><g class="shapelayer"/><g class="imagelayer"/></g><g class="minor-gridlayer"><g class="x"/><g class="y"/></g><g class="gridlayer"><g class="x"/><g class="y"/></g><g class="zerolinelayer"/><g class="layer-between"><g class="shapelayer"/><g class="imagelayer"/></g><path class="xlines-below"/><path class="ylines-below"/><g class="overlines-below"/><g class="xaxislayer-below"/><g class="yaxislayer-below"/><g class="overaxes-below"/><g class="overplot"><g class="xy" transform="translate(80,60)" clip-path="url(#clip886f5axyplot)"><g class="scatterlayer mlayer"><g class="trace scatter trace01a3e1" style="stroke-miterlimit: 2; opacity: 1;"><g class="fills"/><g class="errorbars"/><g class="lines"><path class="js-line" d="M0,106.61L19.89,85.15L39.78,71.71L59.67,67.7L79.57,57.52L99.46,42.48L119.35,39.62L139.24,38.93L159.13,35.85L179.02,80.15L198.91,66.55L218.8,32.59L238.7,48.03L258.59,83.49L278.48,92.44L298.37,77.24L318.26,24.82L338.15,24.1L358.04,22.2L377.93,19.8L397.83,71.02L417.72,43.2L437.61,19.56L576.85,19.56L596.74,66.57L616.63,59.66L636.52,19.56L676.3,19.56L696.2,23.32L716.09,21.92L735.98,22.99L755.87,59.56L775.76,56.69L795.65,23.04L815.54,89.73L835.43,63.44L855.33,62.46L875.22,64.59L895.11,21.52L915,30.01" style="vector-effect: none; fill: none; stroke: rgb(0, 0, 0); stroke-opacity: 1; stroke-width: 2px; opacity: 1;"/></g><g class="points"/><g class="text"/></g><g class="trace scatter tracec7cf42" style="stroke-miterlimit: 2; opacity: 1;"><g class="fills"/><g class="errorbars"/><g class="lines"><path class="js-line" d="M0,19.56L19.89,31.91L39.78,19.56L59.67,19.56L79.57,28.15L99.46,19.56L119.35,19.56L159.13,19.56L179.02,66.1L198.91,53.05L218.8,19.56L238.7,35.42L258.59,71.01L278.48,82.07L298.37,71.45L318.26,19.56L338.15,20.97L358.04,19.56L377.93,19.57L397.83,71.02L417.72,43.2L437.61,19.56L457.5,19.56L576.85,19.56L596.74,66.57L616.63,59.66L636.52,19.74L656.41,19.85L676.3,22.2L696.2,29.14L716.09,39.46L735.98,53.12L755.87,93.88L775.76,103.41L795.65,70.99L815.54,162.62L835.43,137.64L855.33,165.44L875.22,170.27L895.11,130.17L915,149.72" style="vector-effect: none; fill: none; stroke: rgb(230, 159, 0); stroke-opacity: 1; stroke-dasharray: 3px, 3px; stroke-width: 2px; opacity: 1;"/></g><g class="points"/><g class="text"/></g><g class="trace scatter trace5d4ea9" style="stroke-miterlimit: 2; opacity: 1;"><g class="fills"/><g class="errorbars"/><g class="lines"><path class="js-line" d="M0,107.29L19.89,180.46L39.78,94.02L59.67,93.72L79.57,57.52L99.46,71.02L119.35,107.31L139.24,71.01L159.13,93.78L179.02,84.2L198.91,93.78L218.8,96.63L238.7,74.27L278.48,105.45L298.37,187.09L318.26,92.8L338.15,92.44L358.04,72.85L377.93,101.33L397.83,71.02L417.72,113.36L437.61,129.62L457.5,50.47L477.39,71.01L497.28,74.59L517.17,78.93L537.07,70.96L556.96,78.64L576.85,76.52L596.74,114.34L616.63,173.54L636.52,71.01L656.41,87.79L676.3,71.1L696.2,94.73L716.09,94.05L735.98,71.01L755.87,101.77L775.76,103.41L795.65,71.5L815.54,163.64L835.43,155.9L855.33,165.44L875.22,170.27L895.11,149.72L915,149.75" style="vector-effect: none; fill: none; stroke: rgb(86, 180, 233); stroke-opacity: 1; stroke-dasharray: 9px, 3px, 3px, 3px; stroke-width: 2px; opacity: 1;"/></g><g class="points"/><g class="text"/></g><g class="trace scatter trace821ac4" style="stroke-miterlimit: 2; opacity: 1;"><g class="fills"><g><path class="js-fill" d="M0,104.74L19.89,85.15L39.78,71.71L59.67,65.72L79.57,57.52L99.46,42.48L119.35,39.62L139.24,38.93L159.13,31.74L179.02,80.15L198.91,66.55L218.8,32.59L238.7,23.54L258.59,83.49L278.48,92.44L298.37,77.24L318.26,24.82L338.15,9.75L358.04,22.2L377.93,19.66L397.83,71.02L417.72,43.2L437.61,19.56L576.85,19.56L596.74,66.57L616.63,59.66L636.52,19.56L676.3,19.56L696.2,23.32L716.09,21.92L735.98,22.99L755.87,59.56L775.76,56.69L795.65,23.04L815.54,88.23L835.43,63.44L855.33,62.46L875.22,64.59L895.11,21.52L915,30.01L895.11,21.52L875.22,64.59L855.33,62.46L835.43,63.44L815.54,91.22L795.65,23.04L775.76,56.69L755.87,59.56L735.98,22.99L716.09,21.92L696.2,23.32L676.3,19.56L636.52,19.56L616.63,59.66L596.74,66.57L576.85,19.56L437.61,19.56L417.72,43.2L397.83,71.02L377.93,19.94L358.04,22.2L338.15,38.45L318.26,24.82L298.37,77.24L278.48,92.44L258.59,83.49L238.7,72.52L218.8,32.59L198.91,66.55L179.02,80.15L159.13,39.95L139.24,38.93L119.35,39.62L99.46,42.48L79.57,57.52L59.67,69.67L39.78,71.71L19.89,85.15L0,108.48Z" style="fill: rgb(0, 100, 80); fill-opacity: 0.2; stroke-width: 0;"/></g></g><g class="errorbars"/><g class="lines"><path class="js-line" d="M0,104.74L19.89,85.15L39.78,71.71L59.67,65.72L79.57,57.52L99.46,42.48L119.35,39.62L139.24,38.93L159.13,31.74L179.02,80.15L198.91,66.55L218.8,32.59L238.7,23.54L258.59,83.49L278.48,92.44L298.37,77.24L318.26,24.82L338.15,9.75L358.04,22.2L377.93,19.66L397.83,71.02L417.72,43.2L437.61,19.56L576.85,19.56L596.74,66.57L616.63,59.66L636.52,19.56L676.3,19.56L696.2,23.32L716.09,21.92L735.98,22.99L755.87,59.56L775.76,56.69L795.65,23.04L815.54,88.23L835.43,63.44L855.33,62.46L875.22,64.59L895.11,21.52L915,30.01L895.11,21.52L875.22,64.59L855.33,62.46L835.43,63.44L815.54,91.22L795.65,23.04L775.76,56.69L755.87,59.56L735.98,22.99L716.09,21.92L696.2,23.32L676.3,19.56L636.52,19.56L616.63,59.66L596.74,66.57L576.85,19.56L437.61,19.56L417.72,43.2L397.83,71.02L377.93,19.94L358.04,22.2L338.15,38.45L318.26,24.82L298.37,77.24L278.48,92.44L258.59,83.49L238.7,72.52L218.8,32.59L198.91,66.55L179.02,80.15L159.13,39.95L139.24,38.93L119.35,39.62L99.46,42.48L79.57,57.52L59.67,69.67L39.78,71.71L19.89,85.15L0,108.48" style="vector-effect: none; fill: none; stroke: rgb(255, 255, 255); stroke-opacity: 0; stroke-width: 2px; opacity: 1;"/></g><g class="points"/><g class="text"/></g></g></g></g><path class="xlines-above crisp" d="M79,255.5H995" style="fill: none; stroke-width: 1px; stroke: rgb(36, 36, 36); stroke-opacity: 1;"/><path class="ylines-above crisp" d="M79.5,60V255" style="fill: none; stroke-width: 1px; stroke: rgb(36, 36, 36); stroke-opacity: 1;"/><g class="overlines-above"/><g class="xaxislayer-above"><path class="xtick ticks crisp" d="M0,256v5" transform="translate(80,0)" style="stroke: rgb(68, 68, 68); stroke-opacity: 1; stroke-width: 1px;"/><path class="xtick ticks crisp" d="M0,256v5" transform="translate(99.89,0)" style="stroke: rgb(68, 68, 68); stroke-opacity: 1; stroke-width: 1px;"/><path class="xtick ticks crisp" d="M0,256v5" transform="translate(119.78,0)" style="stroke: rgb(68, 68, 68); stroke-opacity: 1; stroke-width: 1px;"/><path class="xtick ticks crisp" d="M0,256v5" transform="translate(139.67000000000002,0)" style="stroke: rgb(68, 68, 68); stroke-opacity: 1; stroke-width: 1px;"/><path class="xtick ticks crisp" d="M0,256v5" transform="translate(159.57,0)" style="stroke: rgb(68, 68, 68); stroke-opacity: 1; stroke-width: 1px;"/><path class="xtick ticks crisp" d="M0,256v5" transform="translate(179.45999999999998,0)" style="stroke: rgb(68, 68, 68); stroke-opacity: 1; stroke-width: 1px;"/><path class="xtick ticks crisp" d="M0,256v5" transform="translate(199.35,0)" style="stroke: rgb(68, 68, 68); stroke-opacity: 1; stroke-width: 1px;"/><path class="xtick ticks crisp" d="M0,256v5" transform="translate(219.24,0)" style="stroke: rgb(68, 68, 68); stroke-opacity: 1; stroke-width: 1px;"/><path class="xtick ticks crisp" d="M0,256v5" transform="translate(239.13,0)" style="stroke: rgb(68, 68, 68); stroke-opacity: 1; stroke-width: 1px;"/><path class="xtick ticks crisp" d="M0,256v5" transform="translate(259.02,0)" style="stroke: rgb(68, 68, 68); stroke-opacity: 1; stroke-width: 1px;"/><path class="xtick ticks crisp" d="M0,256v5" transform="translate(278.90999999999997,0)" style="stroke: rgb(68, 68, 68); stroke-opacity: 1; stroke-width: 1px;"/><path class="xtick ticks crisp" d="M0,256v5" transform="translate(298.8,0)" style="stroke: rgb(68, 68, 68); stroke-opacity: 1; stroke-width: 1px;"/><path class="xtick ticks crisp" d="M0,256v5" transform="translate(318.7,0)" style="stroke: rgb(68, 68, 68); stroke-opacity: 1; stroke-width: 1px;"/><path class="xtick ticks crisp" d="M0,256v5" transform="translate(338.59,0)" style="stroke: rgb(68, 68, 68); stroke-opacity: 1; stroke-width: 1px;"/><path class="xtick ticks crisp" d="M0,256v5" transform="translate(358.48,0)" style="stroke: rgb(68, 68, 68); stroke-opacity: 1; stroke-width: 1px;"/><path class="xtick ticks crisp" d="M0,256v5" transform="translate(378.37,0)" style="stroke: rgb(68, 68, 68); stroke-opacity: 1; stroke-width: 1px;"/><path class="xtick ticks crisp" d="M0,256v5" transform="translate(398.26,0)" style="stroke: rgb(68, 68, 68); stroke-opacity: 1; stroke-width: 1px;"/><path class="xtick ticks crisp" d="M0,256v5" transform="translate(418.15,0)" style="stroke: rgb(68, 68, 68); stroke-opacity: 1; stroke-width: 1px;"/><path class="xtick ticks crisp" d="M0,256v5" transform="translate(438.04,0)" style="stroke: rgb(68, 68, 68); stroke-opacity: 1; stroke-width: 1px;"/><path class="xtick ticks crisp" d="M0,256v5" transform="translate(457.93,0)" style="stroke: rgb(68, 68, 68); stroke-opacity: 1; stroke-width: 1px;"/><path class="xtick ticks crisp" d="M0,256v5" transform="translate(477.83,0)" style="stroke: rgb(68, 68, 68); stroke-opacity: 1; stroke-width: 1px;"/><path class="xtick ticks crisp" d="M0,256v5" transform="translate(497.72,0)" style="stroke: rgb(68, 68, 68); stroke-opacity: 1; stroke-width: 1px;"/><path class="xtick ticks crisp" d="M0,256v5" transform="translate(517.61,0)" style="stroke: rgb(68, 68, 68); stroke-opacity: 1; stroke-width: 1px;"/><path class="xtick ticks crisp" d="M0,256v5" transform="translate(537.5,0)" style="stroke: rgb(68, 68, 68); stroke-opacity: 1; stroke-width: 1px;"/><path class="xtick ticks crisp" d="M0,256v5" transform="translate(557.39,0)" style="stroke: rgb(68, 68, 68); stroke-opacity: 1; stroke-width: 1px;"/><path class="xtick ticks crisp" d="M0,256v5" transform="translate(577.28,0)" style="stroke: rgb(68, 68, 68); stroke-opacity: 1; stroke-width: 1px;"/><path class="xtick ticks crisp" d="M0,256v5" transform="translate(597.17,0)" style="stroke: rgb(68, 68, 68); stroke-opacity: 1; stroke-width: 1px;"/><path class="xtick ticks crisp" d="M0,256v5" transform="translate(617.07,0)" style="stroke: rgb(68, 68, 68); stroke-opacity: 1; stroke-width: 1px;"/><path class="xtick ticks crisp" d="M0,256v5" transform="translate(636.96,0)" style="stroke: rgb(68, 68, 68); stroke-opacity: 1; stroke-width: 1px;"/><path class="xtick ticks crisp" d="M0,256v5" transform="translate(656.85,0)" style="stroke: rgb(68, 68, 68); stroke-opacity: 1; stroke-width: 1px;"/><path class="xtick ticks crisp" d="M0,256v5" transform="translate(676.74,0)" style="stroke: rgb(68, 68, 68); stroke-opacity: 1; stroke-width: 1px;"/><path class="xtick ticks crisp" d="M0,256v5" transform="translate(696.63,0)" style="stroke: rgb(68, 68, 68); stroke-opacity: 1; stroke-width: 1px;"/><path class="xtick ticks crisp" d="M0,256v5" transform="translate(716.52,0)" style="stroke: rgb(68, 68, 68); stroke-opacity: 1; stroke-width: 1px;"/><path class="xtick ticks crisp" d="M0,256v5" transform="translate(736.41,0)" style="stroke: rgb(68, 68, 68); stroke-opacity: 1; stroke-width: 1px;"/><path class="xtick ticks crisp" d="M0,256v5" transform="translate(756.3,0)" style="stroke: rgb(68, 68, 68); stroke-opacity: 1; stroke-width: 1px;"/><path class="xtick ticks crisp" d="M0,256v5" transform="translate(776.2,0)" style="stroke: rgb(68, 68, 68); stroke-opacity: 1; stroke-width: 1px;"/><path class="xtick ticks crisp" d="M0,256v5" transform="translate(796.09,0)" style="stroke: rgb(68, 68, 68); stroke-opacity: 1; stroke-width: 1px;"/><path class="xtick ticks crisp" d="M0,256v5" transform="translate(815.98,0)" style="stroke: rgb(68, 68, 68); stroke-opacity: 1; stroke-width: 1px;"/><path class="xtick ticks crisp" d="M0,256v5" transform="translate(835.87,0)" style="stroke: rgb(68, 68, 68); stroke-opacity: 1; stroke-width: 1px;"/><path class="xtick ticks crisp" d="M0,256v5" transform="translate(855.76,0)" style="stroke: rgb(68, 68, 68); stroke-opacity: 1; stroke-width: 1px;"/><path class="xtick ticks crisp" d="M0,256v5" transform="translate(875.65,0)" style="stroke: rgb(68, 68, 68); stroke-opacity: 1; stroke-width: 1px;"/><path class="xtick ticks crisp" d="M0,256v5" transform="translate(895.54,0)" style="stroke: rgb(68, 68, 68); stroke-opacity: 1; stroke-width: 1px;"/><path class="xtick ticks crisp" d="M0,256v5" transform="translate(915.43,0)" style="stroke: rgb(68, 68, 68); stroke-opacity: 1; stroke-width: 1px;"/><path class="xtick ticks crisp" d="M0,256v5" transform="translate(935.33,0)" style="stroke: rgb(68, 68, 68); stroke-opacity: 1; stroke-width: 1px;"/><path class="xtick ticks crisp" d="M0,256v5" transform="translate(955.22,0)" style="stroke: rgb(68, 68, 68); stroke-opacity: 1; stroke-width: 1px;"/><path class="xtick ticks crisp" d="M0,256v5" transform="translate(975.11,0)" style="stroke: rgb(68, 68, 68); stroke-opacity: 1; stroke-width: 1px;"/><path class="xtick ticks crisp" d="M0,256v5" transform="translate(995,0)" style="stroke: rgb(68, 68, 68); stroke-opacity: 1; stroke-width: 1px;"/><g class="xtick"><text text-anchor="start" x="0" y="275.4" transform="translate(80,0) rotate(90,0,269.4)" style="font-family: monospace; font-size: 12px; fill: rgb(36, 36, 36); fill-opacity: 1; white-space: pre; opacity: 1;">wut_trajectories</text></g><g class="xtick"><text text-anchor="start" x="0" y="275.4" transform="translate(99.89,0) rotate(90,0,269.4)" style="font-family: monospace; font-size: 12px; fill: rgb(36, 36, 36); fill-opacity: 1; white-space: pre; opacity: 1;">fcps_tetra</text></g><g class="xtick"><text text-anchor="start" x="0" y="275.4" transform="translate(119.78,0) rotate(90,0,269.4)" style="font-family: monospace; font-size: 12px; fill: rgb(36, 36, 36); fill-opacity: 1; white-space: pre; opacity: 1;">sipu_spiral</text></g><g class="xtick"><text text-anchor="start" x="0" y="275.4" transform="translate(139.67000000000002,0) rotate(90,0,269.4)" style="font-family: monospace; font-size: 12px; fill: rgb(36, 36, 36); fill-opacity: 1; white-space: pre; opacity: 1;">wut_isolation</text></g><g class="xtick"><text text-anchor="start" x="0" y="275.4" transform="translate(159.57,0) rotate(90,0,269.4)" style="font-family: monospace; font-size: 12px; fill: rgb(36, 36, 36); fill-opacity: 1; white-space: pre; opacity: 1;">sipu_jain</text></g><g class="xtick"><text text-anchor="start" x="0" y="275.4" transform="translate(179.45999999999998,0) rotate(90,0,269.4)" style="font-family: monospace; font-size: 12px; fill: rgb(36, 36, 36); fill-opacity: 1; white-space: pre; opacity: 1;">fcps_atom</text></g><g class="xtick"><text text-anchor="start" x="0" y="275.4" transform="translate(199.35,0) rotate(90,0,269.4)" style="font-family: monospace; font-size: 12px; fill: rgb(36, 36, 36); fill-opacity: 1; white-space: pre; opacity: 1;">wut_circles</text></g><g class="xtick"><text text-anchor="start" x="0" y="275.4" transform="translate(219.24,0) rotate(90,0,269.4)" style="font-family: monospace; font-size: 12px; fill: rgb(36, 36, 36); fill-opacity: 1; white-space: pre; opacity: 1;">fcps_chainlink</text></g><g class="xtick"><text text-anchor="start" x="0" y="275.4" transform="translate(239.13,0) rotate(90,0,269.4)" style="font-family: monospace; font-size: 12px; fill: rgb(36, 36, 36); fill-opacity: 1; white-space: pre; opacity: 1;">wut_mk4</text></g><g class="xtick"><text text-anchor="start" x="0" y="275.4" transform="translate(259.02,0) rotate(90,0,269.4)" style="font-family: monospace; font-size: 12px; fill: rgb(36, 36, 36); fill-opacity: 1; white-space: pre; opacity: 1;">wut_x3</text></g><g class="xtick"><text text-anchor="start" x="0" y="275.4" transform="translate(278.90999999999997,0) rotate(90,0,269.4)" style="font-family: monospace; font-size: 12px; fill: rgb(36, 36, 36); fill-opacity: 1; white-space: pre; opacity: 1;">sipu_pathbased</text></g><g class="xtick"><text text-anchor="start" x="0" y="275.4" transform="translate(298.8,0) rotate(90,0,269.4)" style="font-family: monospace; font-size: 12px; fill: rgb(36, 36, 36); fill-opacity: 1; white-space: pre; opacity: 1;">sipu_r15</text></g><g class="xtick"><text text-anchor="start" x="0" y="275.4" transform="translate(318.7,0) rotate(90,0,269.4)" style="font-family: monospace; font-size: 12px; fill: rgb(36, 36, 36); fill-opacity: 1; white-space: pre; opacity: 1;">graves_dense</text></g><g class="xtick"><text text-anchor="start" x="0" y="275.4" transform="translate(338.59,0) rotate(90,0,269.4)" style="font-family: monospace; font-size: 12px; fill: rgb(36, 36, 36); fill-opacity: 1; white-space: pre; opacity: 1;">wut_mk2</text></g><g class="xtick"><text text-anchor="start" x="0" y="275.4" transform="translate(358.48,0) rotate(90,0,269.4)" style="font-family: monospace; font-size: 12px; fill: rgb(36, 36, 36); fill-opacity: 1; white-space: pre; opacity: 1;">wut_x2</text></g><g class="xtick"><text text-anchor="start" x="0" y="275.4" transform="translate(378.37,0) rotate(90,0,269.4)" style="font-family: monospace; font-size: 12px; fill: rgb(36, 36, 36); fill-opacity: 1; white-space: pre; opacity: 1;">other_iris5</text></g><g class="xtick"><text text-anchor="start" x="0" y="275.4" transform="translate(398.26,0) rotate(90,0,269.4)" style="font-family: monospace; font-size: 12px; fill: rgb(36, 36, 36); fill-opacity: 1; white-space: pre; opacity: 1;">wut_smile</text></g><g class="xtick"><text text-anchor="start" x="0" y="275.4" transform="translate(418.15,0) rotate(90,0,269.4)" style="font-family: monospace; font-size: 12px; fill: rgb(36, 36, 36); fill-opacity: 1; white-space: pre; opacity: 1;">wut_x1</text></g><g class="xtick"><text text-anchor="start" x="0" y="275.4" transform="translate(438.04,0) rotate(90,0,269.4)" style="font-family: monospace; font-size: 12px; fill: rgb(36, 36, 36); fill-opacity: 1; white-space: pre; opacity: 1;">fcps_target</text></g><g class="xtick"><text text-anchor="start" x="0" y="275.4" transform="translate(457.93,0) rotate(90,0,269.4)" style="font-family: monospace; font-size: 12px; fill: rgb(36, 36, 36); fill-opacity: 1; white-space: pre; opacity: 1;">sipu_unbalance</text></g><g class="xtick"><text text-anchor="start" x="0" y="275.4" transform="translate(477.83,0) rotate(90,0,269.4)" style="font-family: monospace; font-size: 12px; fill: rgb(36, 36, 36); fill-opacity: 1; white-space: pre; opacity: 1;">fcps_twodiamonds</text></g><g class="xtick"><text text-anchor="start" x="0" y="275.4" transform="translate(497.72,0) rotate(90,0,269.4)" style="font-family: monospace; font-size: 12px; fill: rgb(36, 36, 36); fill-opacity: 1; white-space: pre; opacity: 1;">sipu_aggregation</text></g><g class="xtick"><text text-anchor="start" x="0" y="275.4" transform="translate(517.61,0) rotate(90,0,269.4)" style="font-family: monospace; font-size: 12px; fill: rgb(36, 36, 36); fill-opacity: 1; white-space: pre; opacity: 1;">fcps_hepta</text></g><g class="xtick"><text text-anchor="start" x="0" y="275.4" transform="translate(537.5,0) rotate(90,0,269.4)" style="font-family: monospace; font-size: 12px; fill: rgb(36, 36, 36); fill-opacity: 1; white-space: pre; opacity: 1;">graves_line</text></g><g class="xtick"><text text-anchor="start" x="0" y="275.4" transform="translate(557.39,0) rotate(90,0,269.4)" style="font-family: monospace; font-size: 12px; fill: rgb(36, 36, 36); fill-opacity: 1; white-space: pre; opacity: 1;">graves_ring</text></g><g class="xtick"><text text-anchor="start" x="0" y="275.4" transform="translate(577.28,0) rotate(90,0,269.4)" style="font-family: monospace; font-size: 12px; fill: rgb(36, 36, 36); fill-opacity: 1; white-space: pre; opacity: 1;">graves_ring_outliers</text></g><g class="xtick"><text text-anchor="start" x="0" y="275.4" transform="translate(597.17,0) rotate(90,0,269.4)" style="font-family: monospace; font-size: 12px; fill: rgb(36, 36, 36); fill-opacity: 1; white-space: pre; opacity: 1;">graves_zigzag</text></g><g class="xtick"><text text-anchor="start" x="0" y="275.4" transform="translate(617.07,0) rotate(90,0,269.4)" style="font-family: monospace; font-size: 12px; fill: rgb(36, 36, 36); fill-opacity: 1; white-space: pre; opacity: 1;">wut_stripes</text></g><g class="xtick"><text text-anchor="start" x="0" y="275.4" transform="translate(636.96,0) rotate(90,0,269.4)" style="font-family: monospace; font-size: 12px; fill: rgb(36, 36, 36); fill-opacity: 1; white-space: pre; opacity: 1;">wut_trapped_lovers</text></g><g class="xtick"><text text-anchor="start" x="0" y="275.4" transform="translate(656.85,0) rotate(90,0,269.4)" style="font-family: monospace; font-size: 12px; fill: rgb(36, 36, 36); fill-opacity: 1; white-space: pre; opacity: 1;">wut_windows</text></g><g class="xtick"><text text-anchor="start" x="0" y="275.4" transform="translate(676.74,0) rotate(90,0,269.4)" style="font-family: monospace; font-size: 12px; fill: rgb(36, 36, 36); fill-opacity: 1; white-space: pre; opacity: 1;">sipu_flame</text></g><g class="xtick"><text text-anchor="start" x="0" y="275.4" transform="translate(696.63,0) rotate(90,0,269.4)" style="font-family: monospace; font-size: 12px; fill: rgb(36, 36, 36); fill-opacity: 1; white-space: pre; opacity: 1;">other_iris</text></g><g class="xtick"><text text-anchor="start" x="0" y="275.4" transform="translate(716.52,0) rotate(90,0,269.4)" style="font-family: monospace; font-size: 12px; fill: rgb(36, 36, 36); fill-opacity: 1; white-space: pre; opacity: 1;">other_square</text></g><g class="xtick"><text text-anchor="start" x="0" y="275.4" transform="translate(736.41,0) rotate(90,0,269.4)" style="font-family: monospace; font-size: 12px; fill: rgb(36, 36, 36); fill-opacity: 1; white-space: pre; opacity: 1;">fcps_lsun</text></g><g class="xtick"><text text-anchor="start" x="0" y="275.4" transform="translate(756.3,0) rotate(90,0,269.4)" style="font-family: monospace; font-size: 12px; fill: rgb(36, 36, 36); fill-opacity: 1; white-space: pre; opacity: 1;">wut_twosplashes</text></g><g class="xtick"><text text-anchor="start" x="0" y="275.4" transform="translate(776.2,0) rotate(90,0,269.4)" style="font-family: monospace; font-size: 12px; fill: rgb(36, 36, 36); fill-opacity: 1; white-space: pre; opacity: 1;">sipu_compound</text></g><g class="xtick"><text text-anchor="start" x="0" y="275.4" transform="translate(796.09,0) rotate(90,0,269.4)" style="font-family: monospace; font-size: 12px; fill: rgb(36, 36, 36); fill-opacity: 1; white-space: pre; opacity: 1;">wut_mk1</text></g><g class="xtick"><text text-anchor="start" x="0" y="275.4" transform="translate(815.98,0) rotate(90,0,269.4)" style="font-family: monospace; font-size: 12px; fill: rgb(36, 36, 36); fill-opacity: 1; white-space: pre; opacity: 1;">fcps_wingnut</text></g><g class="xtick"><text text-anchor="start" x="0" y="275.4" transform="translate(835.87,0) rotate(90,0,269.4)" style="font-family: monospace; font-size: 12px; fill: rgb(36, 36, 36); fill-opacity: 1; white-space: pre; opacity: 1;">wut_mk3</text></g><g class="xtick"><text text-anchor="start" x="0" y="275.4" transform="translate(855.76,0) rotate(90,0,269.4)" style="font-family: monospace; font-size: 12px; fill: rgb(36, 36, 36); fill-opacity: 1; white-space: pre; opacity: 1;">wut_labirynth</text></g><g class="xtick"><text text-anchor="start" x="0" y="275.4" transform="translate(875.65,0) rotate(90,0,269.4)" style="font-family: monospace; font-size: 12px; fill: rgb(36, 36, 36); fill-opacity: 1; white-space: pre; opacity: 1;">graves_parabolic</text></g><g class="xtick"><text text-anchor="start" x="0" y="275.4" transform="translate(895.54,0) rotate(90,0,269.4)" style="font-family: monospace; font-size: 12px; fill: rgb(36, 36, 36); fill-opacity: 1; white-space: pre; opacity: 1;">sipu_d31</text></g><g class="xtick"><text text-anchor="start" x="0" y="275.4" transform="translate(915.43,0) rotate(90,0,269.4)" style="font-family: monospace; font-size: 12px; fill: rgb(36, 36, 36); fill-opacity: 1; white-space: pre; opacity: 1;">sipu_a1</text></g><g class="xtick"><text text-anchor="start" x="0" y="275.4" transform="translate(935.33,0) rotate(90,0,269.4)" style="font-family: monospace; font-size: 12px; fill: rgb(36, 36, 36); fill-opacity: 1; white-space: pre; opacity: 1;">sipu_a2</text></g><g class="xtick"><text text-anchor="start" x="0" y="275.4" transform="translate(955.22,0) rotate(90,0,269.4)" style="font-family: monospace; font-size: 12px; fill: rgb(36, 36, 36); fill-opacity: 1; white-space: pre; opacity: 1;">sipu_a3</text></g><g class="xtick"><text text-anchor="start" x="0" y="275.4" transform="translate(975.11,0) rotate(90,0,269.4)" style="font-family: monospace; font-size: 12px; fill: rgb(36, 36, 36); fill-opacity: 1; white-space: pre; opacity: 1;">sipu_s1</text></g><g class="xtick"><text text-anchor="start" x="0" y="275.4" transform="translate(995,0) rotate(90,0,269.4)" style="font-family: monospace; font-size: 12px; fill: rgb(36, 36, 36); fill-opacity: 1; white-space: pre; opacity: 1;">sipu_s2</text></g></g><g class="yaxislayer-above"><path class="ytick ticks crisp" d="M79,0h-5" transform="translate(0,255)" style="stroke: rgb(68, 68, 68); stroke-opacity: 1; stroke-width: 1px;"/><path class="ytick ticks crisp" d="M79,0h-5" transform="translate(0,219.91)" style="stroke: rgb(68, 68, 68); stroke-opacity: 1; stroke-width: 1px;"/><path class="ytick ticks crisp" d="M79,0h-5" transform="translate(0,184.82999999999998)" style="stroke: rgb(68, 68, 68); stroke-opacity: 1; stroke-width: 1px;"/><path class="ytick ticks crisp" d="M79,0h-5" transform="translate(0,149.74)" style="stroke: rgb(68, 68, 68); stroke-opacity: 1; stroke-width: 1px;"/><path class="ytick ticks crisp" d="M79,0h-5" transform="translate(0,114.65)" style="stroke: rgb(68, 68, 68); stroke-opacity: 1; stroke-width: 1px;"/><path class="ytick ticks crisp" d="M79,0h-5" transform="translate(0,79.56)" style="stroke: rgb(68, 68, 68); stroke-opacity: 1; stroke-width: 1px;"/><g class="ytick"><text text-anchor="end" x="71.6" y="4.199999999999999" transform="translate(0,255)" style="font-family: monospace; font-size: 12px; fill: rgb(36, 36, 36); fill-opacity: 1; white-space: pre; opacity: 1;">0</text></g><g class="ytick"><text text-anchor="end" x="71.6" y="4.199999999999999" style="font-family: monospace; font-size: 12px; fill: rgb(36, 36, 36); fill-opacity: 1; white-space: pre; opacity: 1;" transform="translate(0,219.91)">0.2</text></g><g class="ytick"><text text-anchor="end" x="71.6" y="4.199999999999999" style="font-family: monospace; font-size: 12px; fill: rgb(36, 36, 36); fill-opacity: 1; white-space: pre; opacity: 1;" transform="translate(0,184.82999999999998)">0.4</text></g><g class="ytick"><text text-anchor="end" x="71.6" y="4.199999999999999" style="font-family: monospace; font-size: 12px; fill: rgb(36, 36, 36); fill-opacity: 1; white-space: pre; opacity: 1;" transform="translate(0,149.74)">0.6</text></g><g class="ytick"><text text-anchor="end" x="71.6" y="4.199999999999999" style="font-family: monospace; font-size: 12px; fill: rgb(36, 36, 36); fill-opacity: 1; white-space: pre; opacity: 1;" transform="translate(0,114.65)">0.8</text></g><g class="ytick"><text text-anchor="end" x="71.6" y="4.199999999999999" style="font-family: monospace; font-size: 12px; fill: rgb(36, 36, 36); fill-opacity: 1; white-space: pre; opacity: 1;" transform="translate(0,79.56)">1</text></g></g><g class="overaxes-above"/></g></g><g class="polarlayer"/><g class="smithlayer"/><g class="ternarylayer"/><g class="geolayer"/><g class="funnelarealayer"/><g class="pielayer"/><g class="iciclelayer"/><g class="treemaplayer"/><g class="sunburstlayer"/><g class="glimages"/><defs id="topdefs-886f5a"><g class="clips"/><clipPath id="legend886f5a"><rect width="175" height="86" x="0" y="0"/></clipPath></defs><g class="layer-above"><g class="imagelayer"/><g class="shapelayer"/></g><g class="infolayer"><g class="legend" pointer-events="all" transform="translate(1013.3000000000001,60)"><rect class="bg" shape-rendering="crispEdges" style="stroke: rgb(68, 68, 68); stroke-opacity: 1; fill: rgb(255, 255, 255); fill-opacity: 1; stroke-width: 0px;" width="175" height="86" x="0" y="0"/><g class="scrollbox" transform="" clip-path="url(#legend886f5a)"><text class="legendtitletext" text-anchor="start" x="2" y="18.2" style="font-family: monospace; font-size: 14px; fill: rgb(36, 36, 36); fill-opacity: 1; white-space: pre;">clusterer</text><g class="groups" transform=""><g class="traces" transform="translate(0,32.7)" style="opacity: 1;"><text class="legendtext" text-anchor="start" x="40" y="4.680000000000001" style="font-family: monospace; font-size: 12px; fill: rgb(36, 36, 36); fill-opacity: 1; white-space: pre;">automato_mean</text><g class="layers" style="opacity: 1;"><g class="legendfill"/><g class="legendlines"><path class="js-line" d="M5,0h30" style="fill: none; stroke: rgb(0, 0, 0); stroke-opacity: 1; stroke-width: 2px;"/></g><g class="legendsymbols"><g class="legendpoints"/></g></g><rect class="legendtoggle" x="0" y="-9.5" width="169.625" height="19" style="fill: rgb(0, 0, 0); fill-opacity: 0;"/></g></g><g class="groups" transform=""><g class="traces" transform="translate(0,51.7)" style="opacity: 1;"><text class="legendtext" text-anchor="start" x="40" y="4.680000000000001" style="font-family: monospace; font-size: 12px; fill: rgb(36, 36, 36); fill-opacity: 1; white-space: pre;">linkage_single_max</text><g class="layers" style="opacity: 1;"><g class="legendfill"/><g class="legendlines"><path class="js-line" d="M5,0h30" style="fill: none; stroke: rgb(230, 159, 0); stroke-opacity: 1; stroke-dasharray: 3px, 3px; stroke-width: 2px;"/></g><g class="legendsymbols"><g class="legendpoints"/></g></g><rect class="legendtoggle" x="0" y="-9.5" width="169.625" height="19" style="fill: rgb(0, 0, 0); fill-opacity: 0;"/></g></g><g class="groups" transform=""><g class="traces" transform="translate(0,70.7)" style="opacity: 1;"><text class="legendtext" text-anchor="start" x="40" y="4.680000000000001" style="font-family: monospace; font-size: 12px; fill: rgb(36, 36, 36); fill-opacity: 1; white-space: pre;">linkage_single_min</text><g class="layers" style="opacity: 1;"><g class="legendfill"/><g class="legendlines"><path class="js-line" d="M5,0h30" style="fill: none; stroke: rgb(86, 180, 233); stroke-opacity: 1; stroke-dasharray: 9px, 3px, 3px, 3px; stroke-width: 2px;"/></g><g class="legendsymbols"><g class="legendpoints"/></g></g><rect class="legendtoggle" x="0" y="-9.5" width="169.625" height="19" style="fill: rgb(0, 0, 0); fill-opacity: 0;"/></g></g></g><rect class="scrollbar" rx="20" ry="3" width="0" height="0" style="fill: rgb(128, 139, 164); fill-opacity: 1;" x="0" y="0"/></g><g class="g-gtitle"/><g class="g-xtitle"><text class="xtitle" x="537.5" y="437.731640625" text-anchor="middle" style="opacity: 1; font-family: monospace; font-size: 14px; fill: rgb(36, 36, 36); fill-opacity: 1; white-space: pre;">benchmark</text></g><g class="g-ytitle"><text class="ytitle" transform="rotate(-90,30.584375,157.5)" x="30.584375" y="157.5" text-anchor="middle" style="opacity: 1; font-family: monospace; font-size: 14px; fill: rgb(36, 36, 36); fill-opacity: 1; white-space: pre;">fms-score</text></g></g></svg>