<svg xmlns="http://www.w3.org/2000/svg" xmlns:xlink="http://www.w3.org/1999/xlink" version="1.1" width="301.80305pt" height="204.0937pt" viewBox="0 0 301.80305 204.0937">
<defs>
<clipPath id="clip_0">
<path transform="matrix(1,0,0,-1,-87.00827,204.0937)" d="M87.00827 0H388.8113V204.0937H87.00827Z" fill-rule="evenodd"/>
</clipPath>
<clipPath id="clip_1">
<path transform="matrix(1,0,0,-1,-87.00827,204.0937)" d="M91.73125 48.3875H381.61128V197.7075H91.73125Z"/>
</clipPath>
<clipPath id="clip_2">
<path transform="matrix(1,0,0,-1,-87.00827,204.0937)" d="M91.73125 48.3875H381.61128V197.7075H91.73125Z"/>
</clipPath>
<clipPath id="clip_3">
<path transform="matrix(1,0,0,-1,-87.00827,204.0937)" d="M91.73125 48.3875H381.61128V197.7075H91.73125Z"/>
</clipPath>
<clipPath id="clip_4">
<path transform="matrix(1,0,0,-1,-87.00827,204.0937)" d="M91.73125 48.3875H381.61128V197.7075H91.73125Z"/>
</clipPath>
<g id="font_5_48">
<path transform="matrix(.001,0,0,.001,0,0)" d="M318 664C267 664 229 639 203 589 177 539 165 464 165 364 165 264 177 189 203 139 229 89 267 64 318 64 369 64 407 89 433 139 458 189 471 264 471 364 471 464 458 539 433 589 407 639 369 664 318 664ZM318 742C399 742 461 709 505 645 548 580 570 486 570 364 570 241 548 147 505 83 461 19 399-13 317-13 235-13 173 19 130 83 87 147 66 241 66 364 66 486 87 580 130 645 173 709 236 742 318 742Z"/>
</g>
<g id="font_5_46">
<path transform="matrix(.001,0,0,.001,0,0)" d="M107 124H210V0H107V124Z"/>
</g>
<g id="font_5_50">
<path transform="matrix(.001,0,0,.001,0,0)" d="M192 83H536V0H73V83C110 121 161 173 226 239 290 304 331 346 348 365 380 400 402 430 414 455 426 479 433 504 433 528 433 566 419 598 392 622 365 646 330 659 286 659 255 659 222 653 188 643 154 632 117 616 78 594V694C118 710 155 722 189 730 223 738 255 742 284 742 359 742 419 723 464 685 509 647 532 597 532 534 532 504 526 475 515 449 504 422 484 390 454 354 446 344 420 317 376 272 332 227 271 164 192 83Z"/>
</g>
<clipPath id="clip_6">
<path transform="matrix(.011,0,0,-.011,31.127358,171.06558)" d="M-1021-463H1794V1233H-1021Z"/>
</clipPath>
<g id="font_5_52">
<path transform="matrix(.001,0,0,.001,0,0)" d="M378 643 129 254H378V643ZM352 729H476V254H580V172H476V0H378V172H49V267L352 729Z"/>
</g>
<g id="font_5_54">
<path transform="matrix(.001,0,0,.001,0,0)" d="M330 404C286 404 251 388 225 358 199 328 186 286 186 234 186 181 199 139 225 109 251 79 286 64 330 64 374 64 409 79 435 109 461 139 474 181 474 234 474 286 461 328 435 358 409 388 374 404 330 404ZM526 713V623C501 635 476 644 451 650 425 656 400 659 376 659 310 659 260 637 226 593 192 549 172 482 168 394 187 422 211 444 240 459 269 474 301 482 336 482 409 482 467 459 509 415 551 371 573 310 573 234 573 159 550 99 506 54 462 9 403-13 330-13 246-13 181 19 137 83 92 147 70 241 70 364 70 479 97 571 152 639 206 707 280 742 372 742 396 742 421 739 447 735 472 730 498 723 526 713Z"/>
</g>
<g id="font_5_76">
<path transform="matrix(.001,0,0,.001,0,0)" d="M98 729H197V83H552V0H98V729Z"/>
</g>
<g id="font_5_111">
<path transform="matrix(.001,0,0,.001,0,0)" d="M306 484C258 484 220 465 192 427 164 389 150 338 150 273 150 207 163 156 191 118 219 80 257 62 306 62 354 62 392 80 420 118 448 156 462 207 462 273 462 337 448 389 420 427 392 465 354 484 306 484ZM306 560C384 560 445 534 490 484 534 433 557 363 557 273 557 183 534 113 490 63 445 12 384-13 306-13 227-13 165 12 121 63 77 113 55 183 55 273 55 363 77 433 121 484 165 534 227 560 306 560Z"/>
</g>
<g id="font_5_103">
<path transform="matrix(.001,0,0,.001,0,0)" d="M454 280C454 344 440 395 414 431 387 467 349 485 301 485 253 485 215 467 188 431 161 395 148 344 148 280 148 215 161 165 188 129 215 93 253 75 301 75 349 75 387 93 414 129 440 165 454 215 454 280ZM544 68C544-24 523-93 482-139 440-184 377-207 292-207 260-207 231-204 203-200 175-195 147-188 121-178V-91C147-105 173-115 199-122 225-129 251-133 278-133 336-133 380-117 410-87 439-56 454-10 454 52V96C435 64 411 40 382 24 353 8 319 0 279 0 211 0 157 25 116 76 75 127 55 195 55 280 55 364 75 432 116 483 157 534 211 560 279 560 319 560 353 552 382 536 411 520 435 496 454 464V547H544V68Z"/>
</g>
<g id="font_5_45">
<path transform="matrix(.001,0,0,.001,0,0)" d="M49 314H312V234H49V314Z"/>
</g>
<g id="font_5_100">
<path transform="matrix(.001,0,0,.001,0,0)" d="M454 464V760H544V0H454V82C435 49 411 25 382 10 353-5 319-13 279-13 213-13 159 13 117 65 75 117 55 187 55 273 55 359 75 428 117 481 159 533 213 560 279 560 319 560 353 552 382 536 411 520 435 496 454 464ZM148 273C148 207 161 155 188 117 215 79 252 61 300 61 348 61 385 79 413 117 440 155 454 207 454 273 454 339 440 390 413 428 385 466 348 485 300 485 252 485 215 466 188 428 161 390 148 339 148 273Z"/>
</g>
<g id="font_5_115">
<path transform="matrix(.001,0,0,.001,0,0)" d="M443 531V446C417 458 391 468 364 475 336 481 308 485 279 485 234 485 200 478 178 464 156 450 145 430 145 403 145 382 153 366 169 354 185 342 217 330 265 320L296 313C360 299 405 279 432 255 458 230 472 195 472 151 472 100 452 60 412 31 372 1 316-13 246-13 216-13 186-10 154-5 122 0 89 8 54 20V113C87 95 120 82 152 74 184 65 216 61 248 61 290 61 323 68 346 82 368 96 380 117 380 144 380 168 371 187 355 200 339 213 303 226 247 238L216 245C160 257 119 275 95 299 70 323 58 356 58 399 58 450 76 490 112 518 148 546 200 560 268 560 301 560 332 557 362 552 391 547 418 540 443 531Z"/>
</g>
<g id="font_5_32">
</g>
<g id="font_5_99">
<path transform="matrix(.001,0,0,.001,0,0)" d="M488 526V442C462 456 437 466 411 473 385 480 360 484 334 484 276 484 230 465 198 428 166 391 150 339 150 273 150 206 166 154 198 117 230 80 276 62 334 62 360 62 385 65 411 72 437 79 462 90 488 104V21C462 9 436 0 410-5 383-10 354-13 324-13 242-13 176 12 128 64 79 115 55 185 55 273 55 362 79 432 128 483 177 534 244 560 330 560 358 560 385 557 411 551 437 545 463 537 488 526Z"/>
</g>
<g id="font_5_104">
<path transform="matrix(.001,0,0,.001,0,0)" d="M549 330V0H459V327C459 379 448 417 428 443 408 469 378 482 338 482 289 482 251 466 223 435 195 404 181 362 181 309V0H91V760H181V462C202 494 227 519 257 535 286 551 320 560 358 560 420 560 468 540 500 501 532 462 549 405 549 330Z"/>
</g>
<g id="font_5_97">
<path transform="matrix(.001,0,0,.001,0,0)" d="M343 275C270 275 220 266 192 250 164 233 150 205 150 165 150 133 160 107 181 89 202 70 231 61 267 61 317 61 357 78 387 114 417 149 432 196 432 255V275H343ZM522 312V0H432V83C411 49 385 25 355 10 325-5 287-13 243-13 187-13 142 2 109 33 76 64 60 106 60 159 60 220 80 266 122 298 163 329 224 345 306 345H432V354C432 395 418 427 391 450 364 472 326 484 277 484 245 484 215 480 185 472 155 464 127 453 100 439V522C132 534 164 544 195 550 226 556 256 560 286 560 365 560 424 539 463 498 502 457 522 395 522 312Z"/>
</g>
<g id="font_5_110">
<path transform="matrix(.001,0,0,.001,0,0)" d="M549 330V0H459V327C459 379 448 417 428 443 408 469 378 482 338 482 289 482 251 466 223 435 195 404 181 362 181 309V0H91V547H181V462C202 494 227 519 257 535 286 551 320 560 358 560 420 560 468 540 500 501 532 462 549 405 549 330Z"/>
</g>
<g id="font_5_101">
<path transform="matrix(.001,0,0,.001,0,0)" d="M562 296V252H149C153 190 171 142 205 110 238 78 284 62 344 62 378 62 412 66 444 74 476 82 509 95 541 113V28C509 14 476 3 442-3 408-9 373-13 339-13 251-13 182 12 131 62 80 112 55 181 55 268 55 357 79 428 127 481 175 533 241 560 323 560 397 560 455 536 498 489 540 441 562 377 562 296ZM472 322C471 371 457 410 431 440 404 469 368 484 324 484 274 484 234 469 204 441 174 413 156 373 152 322H472Z"/>
</g>
<g id="font_7_68">
<path transform="matrix(.001,0,0,.001,0,0)" d="M280 587V142H347C423 142 482 161 523 199 563 237 584 292 584 365 584 437 563 492 523 530 483 568 424 587 347 587H280ZM92 729H290C400 729 483 721 537 705 591 689 638 663 677 625 711 592 736 554 753 511 769 468 778 419 778 365 778 310 769 261 753 218 736 174 711 136 677 104 637 66 590 39 536 23 481 7 399 0 290 0H92V729Z"/>
</g>
<g id="font_7_101">
<path transform="matrix(.001,0,0,.001,0,0)" d="M630 275V225H221C225 184 240 153 266 133 291 112 326 102 372 102 408 102 446 107 485 118 523 129 563 146 604 168V33C562 17 521 6 480-1 438-9 397-13 356-13 257-13 180 12 125 62 70 112 43 182 43 273 43 362 70 432 124 483 178 534 252 560 346 560 432 560 500 534 552 482 604 430 630 361 630 275ZM450 333C450 366 440 393 421 413 401 433 376 444 345 444 311 444 283 434 262 415 241 396 228 369 223 333H450Z"/>
</g>
<g id="font_7_110">
<path transform="matrix(.001,0,0,.001,0,0)" d="M634 333V0H458V54 255C458 302 457 334 455 352 453 370 449 383 444 392 437 403 428 412 416 418 404 424 390 428 376 428 339 428 310 414 290 386 269 358 259 319 259 269V0H84V547H259V467C285 499 312 522 342 537 372 552 405 560 441 560 504 560 552 540 585 502 617 463 634 407 634 333Z"/>
</g>
<g id="font_7_115">
<path transform="matrix(.001,0,0,.001,0,0)" d="M511 530V397C473 412 437 424 403 432 368 440 335 444 304 444 270 444 246 439 230 431 214 423 206 410 206 393 206 379 212 368 224 361 236 353 258 348 290 344L321 340C410 328 470 310 501 284 532 258 548 217 548 161 548 103 526 59 483 30 440 1 376-13 291-13 255-13 217-10 179-5 140 0 100 8 60 20V153C94 135 130 122 167 114 203 106 241 102 279 102 313 102 338 106 356 116 373 125 382 139 382 158 382 174 376 185 364 193 352 201 328 207 293 211L262 215C184 224 130 242 99 269 67 295 52 335 52 389 52 447 71 490 111 518 151 546 212 560 294 560 326 560 359 557 395 552 431 547 469 540 511 530Z"/>
</g>
<g id="font_7_105">
<path transform="matrix(.001,0,0,.001,0,0)" d="M84 547H259V0H84V547ZM84 760H259V617H84V760Z"/>
</g>
<g id="font_7_116">
<path transform="matrix(.001,0,0,.001,0,0)" d="M275 702V547H455V422H275V190C275 164 280 147 290 138 300 129 320 125 350 125H440V0H290C221 0 172 14 143 43 114 71 100 120 100 190V422H13V547H100V702H275Z"/>
</g>
<g id="font_7_121">
<path transform="matrix(.001,0,0,.001,0,0)" d="M12 547H187L334 176 459 547H634L404-51C380-111 353-154 323-178 292-202 251-215 201-215H100V-100H155C184-100 205-95 219-86 233-76 243-59 251-35L256-20 12 547Z"/>
</g>
<g id="font_7_82">
<path transform="matrix(.001,0,0,.001,0,0)" d="M359 406C398 406 426 413 443 428 460 442 469 466 469 500 469 533 460 557 443 571 426 585 398 593 359 593H280V406H359ZM280 276V0H92V729H379C475 729 545 712 590 680 634 648 657 597 657 528 657 480 645 440 622 409 598 378 563 355 517 341 543 335 566 321 586 301 606 280 627 249 648 207L750 0H550L461 181C443 217 424 242 406 256 388 269 363 276 333 276H280Z"/>
</g>
<g id="font_7_108">
<path transform="matrix(.001,0,0,.001,0,0)" d="M84 760H259V0H84V760Z"/>
</g>
<g id="font_7_118">
<path transform="matrix(.001,0,0,.001,0,0)" d="M15 547H190L326 169 462 547H637L422 0H230L15 547Z"/>
</g>
<g id="font_7_97">
<path transform="matrix(.001,0,0,.001,0,0)" d="M329 246C292 246 264 239 246 227 228 215 219 197 219 173 219 151 226 133 241 121 256 108 277 102 303 102 336 102 364 113 386 137 408 161 420 190 420 226V246H329ZM596 312V0H420V81C396 47 370 23 341 9 311-5 276-13 234-13 177-13 131 3 96 36 60 68 43 111 43 164 43 228 65 275 109 305 153 335 222 350 317 350H420V364C420 391 409 411 387 424 365 437 331 444 285 444 247 444 212 440 180 432 148 424 118 413 91 399V532C128 541 165 548 203 553 241 557 279 560 317 560 415 560 486 540 530 501 574 462 596 399 596 312Z"/>
</g>
<g id="font_7_99">
<path transform="matrix(.001,0,0,.001,0,0)" d="M526 530V387C502 403 478 415 454 423 430 431 405 435 380 435 331 435 293 420 266 392 238 364 225 324 225 273 225 221 238 181 266 153 293 125 331 111 380 111 407 111 433 115 458 123 482 131 505 143 526 159V16C498 6 470-1 442-6 414-10 386-13 358-13 259-13 182 12 126 62 70 112 43 183 43 273 43 363 70 433 126 484 182 534 259 560 358 560 386 560 414 557 442 552 470 547 498 540 526 530Z"/>
</g>
<g id="font_7_70">
<path transform="matrix(.001,0,0,.001,0,0)" d="M92 729H599V587H280V451H580V309H280V0H92V729Z"/>
</g>
<g id="font_7_117">
<path transform="matrix(.001,0,0,.001,0,0)" d="M78 213V547H254V492C254 462 253 425 253 380 253 335 253 305 253 291 253 247 254 215 256 196 258 176 262 162 268 154 275 142 284 133 296 127 307 121 320 118 336 118 372 118 401 132 422 160 442 188 453 227 453 277V547H628V0H453V79C427 47 399 23 369 9 339-5 307-13 272-13 208-13 160 6 127 44 94 82 78 139 78 213Z"/>
</g>
<g id="font_7_66">
<path transform="matrix(.001,0,0,.001,0,0)" d="M384 447C413 447 435 453 451 466 466 479 474 498 474 524 474 549 466 568 451 581 435 594 413 601 384 601H280V447H384ZM390 128C428 128 456 136 475 152 494 168 504 192 504 224 504 255 494 279 475 295 456 311 428 319 390 319H280V128H390ZM565 390C605 378 636 357 658 325 680 293 692 255 692 209 692 139 668 86 620 52 572 17 500 0 404 0H92V729H374C475 729 548 713 594 683 639 652 662 603 662 536 662 500 653 470 637 445 620 420 596 402 565 390Z"/>
</g>
<g id="font_7_83">
<path transform="matrix(.001,0,0,.001,0,0)" d="M599 706V552C559 570 520 583 482 592 444 601 408 606 374 606 329 606 296 599 274 587 252 575 242 556 242 530 242 510 249 494 264 484 278 473 305 464 343 456L423 440C503 424 561 399 595 366 629 332 647 285 647 224 647 144 623 84 575 45 527 6 455-13 357-13 311-13 264-8 218 0 171 8 124 20 78 38V197C124 172 169 153 213 141 256 128 298 122 339 122 379 122 411 128 433 142 455 156 466 175 466 201 466 223 458 241 443 253 428 265 399 277 355 287L282 303C209 319 156 344 122 378 88 412 72 458 72 516 72 588 95 644 142 683 188 722 256 742 344 742 384 742 425 739 467 733 509 727 553 718 599 706Z"/>
</g>
<g id="font_7_114">
<path transform="matrix(.001,0,0,.001,0,0)" d="M490 398C474 405 459 410 444 414 429 417 414 419 399 419 354 419 319 404 295 376 271 347 259 306 259 252V0H84V547H259V457C281 493 306 519 336 535 365 551 400 560 441 560 447 560 453 559 460 559 466 559 476 558 490 556V398Z"/>
</g>
<g id="font_7_67">
<path transform="matrix(.001,0,0,.001,0,0)" d="M670 40C635 22 599 8 562 0 524-8 485-13 445-13 323-13 227 20 156 88 85 155 50 247 50 364 50 480 85 572 156 640 227 708 323 742 445 742 485 742 524 737 562 728 599 719 635 706 670 688V537C635 561 601 578 567 589 533 600 497 606 460 606 392 606 339 584 301 541 263 498 244 439 244 364 244 288 263 229 301 186 339 143 392 122 460 122 497 122 533 127 567 138 601 149 635 167 670 191V40Z"/>
</g>
<g id="font_7_111">
<path transform="matrix(.001,0,0,.001,0,0)" d="M344 435C305 435 275 421 255 393 235 365 225 325 225 273 225 220 235 180 255 152 275 124 305 111 344 111 382 111 411 124 431 152 451 180 462 220 462 273 462 325 451 365 431 393 411 421 382 435 344 435ZM344 560C438 560 511 534 564 484 617 433 644 363 644 273 644 183 617 112 564 62 511 12 438-13 344-13 250-13 176 12 123 62 69 112 43 183 43 273 43 363 69 433 123 484 176 534 250 560 344 560Z"/>
</g>
<g id="font_7_104">
<path transform="matrix(.001,0,0,.001,0,0)" d="M634 333V0H458V54 254C458 302 457 334 455 352 453 370 449 383 444 392 437 403 428 412 416 418 404 424 390 428 376 428 339 428 310 414 290 386 269 358 259 319 259 269V0H84V760H259V467C285 499 312 522 342 537 372 552 405 560 441 560 504 560 552 540 585 502 617 463 634 407 634 333Z"/>
</g>
<g id="font_7_84">
<path transform="matrix(.001,0,0,.001,0,0)" d="M5 729H677V587H435V0H247V587H5V729Z"/>
</g>
<clipPath id="clip_8">
<path transform="matrix(1,0,0,-1,-87.00827,204.0937)" d="M91.73125 48.3875H381.61128V197.7075H91.73125Z"/>
</clipPath>
<clipPath id="clip_9">
<path transform="matrix(1,0,0,-1,-87.00827,204.0937)" d="M91.73125 48.3875H381.61128V197.7075H91.73125Z"/>
</clipPath>
<clipPath id="clip_10">
<path transform="matrix(1,0,0,-1,-87.00827,204.0937)" d="M91.73125 48.3875H381.61128V197.7075H91.73125Z"/>
</clipPath>
<clipPath id="clip_11">
<path transform="matrix(1,0,0,-1,-87.00827,204.0937)" d="M91.73125 48.3875H381.61128V197.7075H91.73125Z"/>
</clipPath>
<clipPath id="clip_12">
<path transform="matrix(1,0,0,-1,-87.00827,204.0937)" d="M91.73125 48.3875H381.61128V197.7075H91.73125Z"/>
</clipPath>
<clipPath id="clip_13">
<path transform="matrix(1,0,0,-1,-87.00827,204.0937)" d="M91.73125 48.3875H381.61128V197.7075H91.73125Z"/>
</clipPath>
<clipPath id="clip_14">
<path transform="matrix(1,0,0,-1,-87.00827,204.0937)" d="M91.73125 48.3875H381.61128V197.7075H91.73125Z"/>
</clipPath>
<clipPath id="clip_15">
<path transform="matrix(1,0,0,-1,-87.00827,204.0937)" d="M91.73125 48.3875H381.61128V197.7075H91.73125Z"/>
</clipPath>
<clipPath id="clip_16">
<path transform="matrix(1,0,0,-1,-87.00827,204.0937)" d="M91.73125 48.3875H381.61128V197.7075H91.73125Z"/>
</clipPath>
<clipPath id="clip_17">
<path transform="matrix(1,0,0,-1,-87.00827,204.0937)" d="M91.73125 48.3875H381.61128V197.7075H91.73125Z"/>
</clipPath>
<clipPath id="clip_18">
<path transform="matrix(1,0,0,-1,-87.00827,204.0937)" d="M91.73125 48.3875H381.61128V197.7075H91.73125Z"/>
</clipPath>
<clipPath id="clip_19">
<path transform="matrix(1,0,0,-1,-87.00827,204.0937)" d="M91.73125 48.3875H381.61128V197.7075H91.73125Z"/>
</clipPath>
<clipPath id="clip_20">
<path transform="matrix(1,0,0,-1,-87.00827,204.0937)" d="M91.73125 48.3875H381.61128V197.7075H91.73125Z"/>
</clipPath>
<clipPath id="clip_21">
<path transform="matrix(1,0,0,-1,-87.00827,204.0937)" d="M91.73125 48.3875H381.61128V197.7075H91.73125Z"/>
</clipPath>
<clipPath id="clip_22">
<path transform="matrix(1,0,0,-1,-87.00827,204.0937)" d="M91.73125 48.3875H381.61128V197.7075H91.73125Z"/>
</clipPath>
<clipPath id="clip_23">
<path transform="matrix(1,0,0,-1,-87.00827,204.0937)" d="M91.73125 48.3875H381.61128V197.7075H91.73125Z"/>
</clipPath>
<clipPath id="clip_24">
<path transform="matrix(1,0,0,-1,-87.00827,204.0937)" d="M91.73125 48.3875H381.61128V197.7075H91.73125Z"/>
</clipPath>
<clipPath id="clip_25">
<path transform="matrix(1,0,0,-1,-87.00827,204.0937)" d="M91.73125 48.3875H381.61128V197.7075H91.73125Z"/>
</clipPath>
<clipPath id="clip_26">
<path transform="matrix(1,0,0,-1,-87.00827,204.0937)" d="M91.73125 48.3875H381.61128V197.7075H91.73125Z"/>
</clipPath>
<clipPath id="clip_27">
<path transform="matrix(1,0,0,-1,-87.00827,204.0937)" d="M91.73125 48.3875H381.61128V197.7075H91.73125Z"/>
</clipPath>
<clipPath id="clip_28">
<path transform="matrix(1,0,0,-1,-87.00827,204.0937)" d="M91.73125 48.3875H381.61128V197.7075H91.73125Z"/>
</clipPath>
<clipPath id="clip_29">
<path transform="matrix(1,0,0,-1,-87.00827,204.0937)" d="M91.73125 48.3875H381.61128V197.7075H91.73125Z"/>
</clipPath>
<clipPath id="clip_30">
<path transform="matrix(1,0,0,-1,-87.00827,204.0937)" d="M91.73125 48.3875H381.61128V197.7075H91.73125Z"/>
</clipPath>
<clipPath id="clip_31">
<path transform="matrix(1,0,0,-1,-87.00827,204.0937)" d="M91.73125 48.3875H381.61128V197.7075H91.73125Z"/>
</clipPath>
<clipPath id="clip_32">
<path transform="matrix(1,0,0,-1,-87.00827,204.0937)" d="M91.73125 48.3875H381.61128V197.7075H91.73125Z"/>
</clipPath>
<clipPath id="clip_33">
<path transform="matrix(1,0,0,-1,-87.00827,204.0937)" d="M91.73125 48.3875H381.61128V197.7075H91.73125Z"/>
</clipPath>
<clipPath id="clip_34">
<path transform="matrix(1,0,0,-1,-87.00827,204.0937)" d="M91.73125 48.3875H381.61128V197.7075H91.73125Z"/>
</clipPath>
<clipPath id="clip_35">
<path transform="matrix(1,0,0,-1,-87.00827,204.0937)" d="M91.73125 48.3875H381.61128V197.7075H91.73125Z"/>
</clipPath>
<clipPath id="clip_36">
<path transform="matrix(1,0,0,-1,-87.00827,204.0937)" d="M91.73125 48.3875H381.61128V197.7075H91.73125Z"/>
</clipPath>
</defs>
<g clip-path="url(#clip_0)">
<path transform="matrix(1,0,0,-1,-87.00827,204.0937)" d="M0 0H388.81126V204.9075H0Z" fill="#ffffff"/>
<path transform="matrix(1,0,0,-1,-87.00827,204.0937)" d="M91.73125 48.3875H381.61125V197.7075H91.73125Z" fill="#ffffff"/>
<g clip-path="url(#clip_1)">
<path transform="matrix(1,0,0,-1,-87.00827,204.0937)" d="M91.73125 190.92023V174.95018H381.61125V190.92023Z" fill="#f8f8f8"/>
<path transform="matrix(1,0,0,-1,-87.00827,204.0937)" stroke-width="1" stroke-linecap="butt" stroke-miterlimit="10" stroke-linejoin="miter" fill="none" stroke="#f8f8f8" d="M91.73125 190.92023V174.95018H381.61125V190.92023Z"/>
</g>
<g clip-path="url(#clip_2)">
<path transform="matrix(1,0,0,-1,-87.00827,204.0937)" d="M91.73125 150.99509V135.02504H381.61125V150.99509Z" fill="#f8f8f8"/>
<path transform="matrix(1,0,0,-1,-87.00827,204.0937)" stroke-width="1" stroke-linecap="butt" stroke-miterlimit="10" stroke-linejoin="miter" fill="none" stroke="#f8f8f8" d="M91.73125 150.99509V135.02504H381.61125V150.99509Z"/>
</g>
<g clip-path="url(#clip_3)">
<path transform="matrix(1,0,0,-1,-87.00827,204.0937)" d="M91.73125 111.06996V95.09991H381.61125V111.06996Z" fill="#f8f8f8"/>
<path transform="matrix(1,0,0,-1,-87.00827,204.0937)" stroke-width="1" stroke-linecap="butt" stroke-miterlimit="10" stroke-linejoin="miter" fill="none" stroke="#f8f8f8" d="M91.73125 111.06996V95.09991H381.61125V111.06996Z"/>
</g>
<g clip-path="url(#clip_4)">
<path transform="matrix(1,0,0,-1,-87.00827,204.0937)" d="M91.73125 71.14483V55.174776H381.61125V71.14483Z" fill="#f8f8f8"/>
<path transform="matrix(1,0,0,-1,-87.00827,204.0937)" stroke-width="1" stroke-linecap="butt" stroke-miterlimit="10" stroke-linejoin="miter" fill="none" stroke="#f8f8f8" d="M91.73125 71.14483V55.174776H381.61125V71.14483Z"/>
</g>
<use data-text="0" xlink:href="#font_5_48" transform="matrix(11,0,0,-11,40.344156,171.06558)"/>
<use data-text="." xlink:href="#font_5_46" transform="matrix(11,0,0,-11,47.340158,171.06558)"/>
<use data-text="0" xlink:href="#font_5_48" transform="matrix(11,0,0,-11,50.838155,171.06558)"/>
<use data-text="2" xlink:href="#font_5_50" transform="matrix(11,0,0,-11,57.834154,171.06558)"/>
<g clip-path="url(#clip_6)">
<path transform="matrix(.011,0,0,-.011,31.127358,171.06558)" d="M106 355H732V272H106V355Z"/>
</g>
<use data-text="0" xlink:href="#font_5_48" transform="matrix(11,0,0,-11,85.10785,171.06558)"/>
<use data-text="." xlink:href="#font_5_46" transform="matrix(11,0,0,-11,92.10385,171.06558)"/>
<use data-text="0" xlink:href="#font_5_48" transform="matrix(11,0,0,-11,95.60185,171.06558)"/>
<use data-text="0" xlink:href="#font_5_48" transform="matrix(11,0,0,-11,102.597858,171.06558)"/>
<use data-text="0" xlink:href="#font_5_48" transform="matrix(11,0,0,-11,134.47898,171.06558)"/>
<use data-text="." xlink:href="#font_5_46" transform="matrix(11,0,0,-11,141.47498,171.06558)"/>
<use data-text="0" xlink:href="#font_5_48" transform="matrix(11,0,0,-11,144.97298,171.06558)"/>
<use data-text="2" xlink:href="#font_5_50" transform="matrix(11,0,0,-11,151.96898,171.06558)"/>
<use data-text="0" xlink:href="#font_5_48" transform="matrix(11,0,0,-11,183.8501,171.06558)"/>
<use data-text="." xlink:href="#font_5_46" transform="matrix(11,0,0,-11,190.8461,171.06558)"/>
<use data-text="0" xlink:href="#font_5_48" transform="matrix(11,0,0,-11,194.3441,171.06558)"/>
<use data-text="4" xlink:href="#font_5_52" transform="matrix(11,0,0,-11,201.3401,171.06558)"/>
<use data-text="0" xlink:href="#font_5_48" transform="matrix(11,0,0,-11,233.22122,171.06558)"/>
<use data-text="." xlink:href="#font_5_46" transform="matrix(11,0,0,-11,240.21723,171.06558)"/>
<use data-text="0" xlink:href="#font_5_48" transform="matrix(11,0,0,-11,243.71523,171.06558)"/>
<use data-text="6" xlink:href="#font_5_54" transform="matrix(11,0,0,-11,250.71123,171.06558)"/>
<use data-text="L" xlink:href="#font_5_76" transform="matrix(14,0,0,-14,89.70204,193.98746)"/>
<use data-text="o" xlink:href="#font_5_111" transform="matrix(14,0,0,-14,97.26567,193.98746)"/>
<use data-text="g" xlink:href="#font_5_103" transform="matrix(14,0,0,-14,105.833667,193.98746)"/>
<use data-text="-" xlink:href="#font_5_45" transform="matrix(14,0,0,-14,114.72366,193.98746)"/>
<use data-text="o" xlink:href="#font_5_111" transform="matrix(14,0,0,-14,120.027667,193.98746)"/>
<use data-text="d" xlink:href="#font_5_100" transform="matrix(14,0,0,-14,128.59568,193.98746)"/>
<use data-text="d" xlink:href="#font_5_100" transform="matrix(14,0,0,-14,137.48567,193.98746)"/>
<use data-text="s" xlink:href="#font_5_115" transform="matrix(14,0,0,-14,146.37567,193.98746)"/>
<use data-text=" " xlink:href="#font_5_32" transform="matrix(14,0,0,-14,153.66968,193.98746)"/>
<use data-text="c" xlink:href="#font_5_99" transform="matrix(14,0,0,-14,158.12168,193.98746)"/>
<use data-text="h" xlink:href="#font_5_104" transform="matrix(14,0,0,-14,165.82167,193.98746)"/>
<use data-text="a" xlink:href="#font_5_97" transform="matrix(14,0,0,-14,174.69766,193.98746)"/>
<use data-text="n" xlink:href="#font_5_110" transform="matrix(14,0,0,-14,183.27967,193.98746)"/>
<use data-text="g" xlink:href="#font_5_103" transform="matrix(14,0,0,-14,192.15567,193.98746)"/>
<use data-text="e" xlink:href="#font_5_101" transform="matrix(14,0,0,-14,201.04567,193.98746)"/>
<use data-text="D" xlink:href="#font_7_68" transform="matrix(13,0,0,-13,-58.011396,26.096009)" fill="#0072b2"/>
<use data-text="e" xlink:href="#font_7_101" transform="matrix(13,0,0,-13,-47.221395,26.096009)" fill="#0072b2"/>
<use data-text="n" xlink:href="#font_7_110" transform="matrix(13,0,0,-13,-38.407396,26.096009)" fill="#0072b2"/>
<use data-text="s" xlink:href="#font_7_115" transform="matrix(13,0,0,-13,-29.151394,26.096009)" fill="#0072b2"/>
<use data-text="i" xlink:href="#font_7_105" transform="matrix(13,0,0,-13,-21.416394,26.096009)" fill="#0072b2"/>
<use data-text="t" xlink:href="#font_7_116" transform="matrix(13,0,0,-13,-16.957394,26.096009)" fill="#0072b2"/>
<use data-text="y" xlink:href="#font_7_121" transform="matrix(13,0,0,-13,-10.743393,26.096009)" fill="#0072b2"/>
<use data-text="R" xlink:href="#font_7_82" transform="matrix(13,0,0,-13,-77.3864,46.05858)" fill="#0072b2"/>
<use data-text="e" xlink:href="#font_7_101" transform="matrix(13,0,0,-13,-67.376399,46.05858)" fill="#0072b2"/>
<use data-text="l" xlink:href="#font_7_108" transform="matrix(13,0,0,-13,-58.562398,46.05858)" fill="#0072b2"/>
<use data-text="e" xlink:href="#font_7_101" transform="matrix(13,0,0,-13,-54.103399,46.05858)" fill="#0072b2"/>
<use data-text="v" xlink:href="#font_7_118" transform="matrix(13,0,0,-13,-45.2894,46.05858)" fill="#0072b2"/>
<use data-text="a" xlink:href="#font_7_97" transform="matrix(13,0,0,-13,-36.8134,46.05858)" fill="#0072b2"/>
<use data-text="n" xlink:href="#font_7_110" transform="matrix(13,0,0,-13,-28.038399,46.05858)" fill="#0072b2"/>
<use data-text="c" xlink:href="#font_7_99" transform="matrix(13,0,0,-13,-18.782399,46.05858)" fill="#0072b2"/>
<use data-text="e" xlink:href="#font_7_101" transform="matrix(13,0,0,-13,-11.073395,46.05858)" fill="#0072b2"/>
<use data-text="F" xlink:href="#font_7_70" transform="matrix(13,0,0,-13,-74.73015,66.02113)" fill="#d55e00"/>
<use data-text="a" xlink:href="#font_7_97" transform="matrix(13,0,0,-13,-66.60115,66.02113)" fill="#d55e00"/>
<use data-text="c" xlink:href="#font_7_99" transform="matrix(13,0,0,-13,-57.82615,66.02113)" fill="#d55e00"/>
<use data-text="t" xlink:href="#font_7_116" transform="matrix(13,0,0,-13,-50.117147,66.02113)" fill="#d55e00"/>
<use data-text="u" xlink:href="#font_7_117" transform="matrix(13,0,0,-13,-43.903146,66.02113)" fill="#d55e00"/>
<use data-text="a" xlink:href="#font_7_97" transform="matrix(13,0,0,-13,-34.647146,66.02113)" fill="#d55e00"/>
<use data-text="l" xlink:href="#font_7_108" transform="matrix(13,0,0,-13,-25.872143,66.02113)" fill="#d55e00"/>
<use data-text="i" xlink:href="#font_7_105" transform="matrix(13,0,0,-13,-21.413144,66.02113)" fill="#d55e00"/>
<use data-text="t" xlink:href="#font_7_116" transform="matrix(13,0,0,-13,-16.954144,66.02113)" fill="#d55e00"/>
<use data-text="y" xlink:href="#font_7_121" transform="matrix(13,0,0,-13,-10.740143,66.02113)" fill="#d55e00"/>
<use data-text="B" xlink:href="#font_7_66" transform="matrix(13,0,0,-13,-33.15202,85.9837)" fill="#d55e00"/>
<use data-text="i" xlink:href="#font_7_105" transform="matrix(13,0,0,-13,-23.24602,85.9837)" fill="#d55e00"/>
<use data-text="a" xlink:href="#font_7_97" transform="matrix(13,0,0,-13,-18.78702,85.9837)" fill="#d55e00"/>
<use data-text="s" xlink:href="#font_7_115" transform="matrix(13,0,0,-13,-10.01202,85.9837)" fill="#d55e00"/>
<use data-text="S" xlink:href="#font_7_83" transform="matrix(13,0,0,-13,-71.90202,105.94627)" fill="#009e73"/>
<use data-text="t" xlink:href="#font_7_116" transform="matrix(13,0,0,-13,-62.542024,105.94627)" fill="#009e73"/>
<use data-text="r" xlink:href="#font_7_114" transform="matrix(13,0,0,-13,-56.328023,105.94627)" fill="#009e73"/>
<use data-text="u" xlink:href="#font_7_117" transform="matrix(13,0,0,-13,-49.91902,105.94627)" fill="#009e73"/>
<use data-text="c" xlink:href="#font_7_99" transform="matrix(13,0,0,-13,-40.66302,105.94627)" fill="#009e73"/>
<use data-text="t" xlink:href="#font_7_116" transform="matrix(13,0,0,-13,-32.95402,105.94627)" fill="#009e73"/>
<use data-text="u" xlink:href="#font_7_117" transform="matrix(13,0,0,-13,-26.74002,105.94627)" fill="#009e73"/>
<use data-text="r" xlink:href="#font_7_114" transform="matrix(13,0,0,-13,-17.48402,105.94627)" fill="#009e73"/>
<use data-text="e" xlink:href="#font_7_101" transform="matrix(13,0,0,-13,-11.07502,105.94627)" fill="#009e73"/>
<use data-text="C" xlink:href="#font_7_67" transform="matrix(13,0,0,-13,-79.80827,125.90884)" fill="#009e73"/>
<use data-text="o" xlink:href="#font_7_111" transform="matrix(13,0,0,-13,-70.26627,125.90884)" fill="#009e73"/>
<use data-text="h" xlink:href="#font_7_104" transform="matrix(13,0,0,-13,-61.335275,125.90884)" fill="#009e73"/>
<use data-text="e" xlink:href="#font_7_101" transform="matrix(13,0,0,-13,-52.07927,125.90884)" fill="#009e73"/>
<use data-text="r" xlink:href="#font_7_114" transform="matrix(13,0,0,-13,-43.26527,125.90884)" fill="#009e73"/>
<use data-text="e" xlink:href="#font_7_101" transform="matrix(13,0,0,-13,-36.85627,125.90884)" fill="#009e73"/>
<use data-text="n" xlink:href="#font_7_110" transform="matrix(13,0,0,-13,-28.04227,125.90884)" fill="#009e73"/>
<use data-text="c" xlink:href="#font_7_99" transform="matrix(13,0,0,-13,-18.78627,125.90884)" fill="#009e73"/>
<use data-text="e" xlink:href="#font_7_101" transform="matrix(13,0,0,-13,-11.0772709,125.90884)" fill="#009e73"/>
<use data-text="T" xlink:href="#font_7_84" transform="matrix(13,0,0,-13,-36.40202,145.8714)" fill="#009e73"/>
<use data-text="o" xlink:href="#font_7_111" transform="matrix(13,0,0,-13,-29.254769,145.8714)" fill="#009e73"/>
<use data-text="n" xlink:href="#font_7_110" transform="matrix(13,0,0,-13,-20.323769,145.8714)" fill="#009e73"/>
<use data-text="e" xlink:href="#font_7_101" transform="matrix(13,0,0,-13,-11.067768,145.8714)" fill="#009e73"/>
<g clip-path="url(#clip_8)">
<path transform="matrix(1,0,0,-1,-87.00827,204.0937)" stroke-width="2" stroke-linecap="square" stroke-linejoin="round" fill="none" stroke="#0072b2" d="M141.24469 182.9352H368.43489"/>
</g>
<g clip-path="url(#clip_9)">
<path transform="matrix(1,0,0,-1,-87.00827,204.0937)" stroke-width="2" stroke-linecap="square" stroke-linejoin="round" fill="none" stroke="#0072b2" d="M141.24469 185.92958V179.94081"/>
</g>
<g clip-path="url(#clip_10)">
<path transform="matrix(1,0,0,-1,-87.00827,204.0937)" stroke-width="2" stroke-linecap="square" stroke-linejoin="round" fill="none" stroke="#0072b2" d="M368.43489 185.92958V179.94081"/>
</g>
<g clip-path="url(#clip_11)">
<path transform="matrix(1,0,0,-1,-87.00827,204.0937)" stroke-width="2" stroke-linecap="square" stroke-linejoin="round" fill="none" stroke="#0072b2" d="M160.7988 162.97264H367.35649"/>
</g>
<g clip-path="url(#clip_12)">
<path transform="matrix(1,0,0,-1,-87.00827,204.0937)" stroke-width="2" stroke-linecap="square" stroke-linejoin="round" fill="none" stroke="#0072b2" d="M160.7988 165.96703V159.97826"/>
</g>
<g clip-path="url(#clip_13)">
<path transform="matrix(1,0,0,-1,-87.00827,204.0937)" stroke-width="2" stroke-linecap="square" stroke-linejoin="round" fill="none" stroke="#0072b2" d="M367.35649 165.96703V159.97826"/>
</g>
<g clip-path="url(#clip_14)">
<path transform="matrix(1,0,0,-1,-87.00827,204.0937)" stroke-width="2" stroke-linecap="square" stroke-linejoin="round" fill="none" stroke="#d55e00" d="M136.91571 143.01007H264.30296"/>
</g>
<g clip-path="url(#clip_15)">
<path transform="matrix(1,0,0,-1,-87.00827,204.0937)" stroke-width="2" stroke-linecap="square" stroke-linejoin="round" fill="none" stroke="#d55e00" d="M136.91571 146.00446V140.01569"/>
</g>
<g clip-path="url(#clip_16)">
<path transform="matrix(1,0,0,-1,-87.00827,204.0937)" stroke-width="2" stroke-linecap="square" stroke-linejoin="round" fill="none" stroke="#d55e00" d="M264.30296 146.00446V140.01569"/>
</g>
<g clip-path="url(#clip_17)">
<path transform="matrix(1,0,0,-1,-87.00827,204.0937)" stroke-width="2" stroke-linecap="square" stroke-linejoin="round" fill="none" stroke="#d55e00" d="M152.98615 123.0475H312.73048"/>
</g>
<g clip-path="url(#clip_18)">
<path transform="matrix(1,0,0,-1,-87.00827,204.0937)" stroke-width="2" stroke-linecap="square" stroke-linejoin="round" fill="none" stroke="#d55e00" d="M152.98615 126.041889V120.053119"/>
</g>
<g clip-path="url(#clip_19)">
<path transform="matrix(1,0,0,-1,-87.00827,204.0937)" stroke-width="2" stroke-linecap="square" stroke-linejoin="round" fill="none" stroke="#d55e00" d="M312.73048 126.041889V120.053119"/>
</g>
<g clip-path="url(#clip_20)">
<path transform="matrix(1,0,0,-1,-87.00827,204.0937)" stroke-width="2" stroke-linecap="square" stroke-linejoin="round" fill="none" stroke="#009e73" d="M104.907619 103.08493H330.9328"/>
</g>
<g clip-path="url(#clip_21)">
<path transform="matrix(1,0,0,-1,-87.00827,204.0937)" stroke-width="2" stroke-linecap="square" stroke-linejoin="round" fill="none" stroke="#009e73" d="M104.907619 106.079319V100.090549"/>
</g>
<g clip-path="url(#clip_22)">
<path transform="matrix(1,0,0,-1,-87.00827,204.0937)" stroke-width="2" stroke-linecap="square" stroke-linejoin="round" fill="none" stroke="#009e73" d="M330.9328 106.079319V100.090549"/>
</g>
<g clip-path="url(#clip_23)">
<path transform="matrix(1,0,0,-1,-87.00827,204.0937)" stroke-width="2" stroke-linecap="square" stroke-linejoin="round" fill="none" stroke="#009e73" d="M111.88203 83.12237H339.7635"/>
</g>
<g clip-path="url(#clip_24)">
<path transform="matrix(1,0,0,-1,-87.00827,204.0937)" stroke-width="2" stroke-linecap="square" stroke-linejoin="round" fill="none" stroke="#009e73" d="M111.88203 86.11675V80.12798"/>
</g>
<g clip-path="url(#clip_25)">
<path transform="matrix(1,0,0,-1,-87.00827,204.0937)" stroke-width="2" stroke-linecap="square" stroke-linejoin="round" fill="none" stroke="#009e73" d="M339.7635 86.11675V80.12798"/>
</g>
<g clip-path="url(#clip_26)">
<path transform="matrix(1,0,0,-1,-87.00827,204.0937)" stroke-width="2" stroke-linecap="square" stroke-linejoin="round" fill="none" stroke="#009e73" d="M127.32542 63.159799H361.43067"/>
</g>
<g clip-path="url(#clip_27)">
<path transform="matrix(1,0,0,-1,-87.00827,204.0937)" stroke-width="2" stroke-linecap="square" stroke-linejoin="round" fill="none" stroke="#009e73" d="M127.32542 66.15418V60.165414"/>
</g>
<g clip-path="url(#clip_28)">
<path transform="matrix(1,0,0,-1,-87.00827,204.0937)" stroke-width="2" stroke-linecap="square" stroke-linejoin="round" fill="none" stroke="#009e73" d="M361.43067 66.15418V60.165414"/>
</g>
<g clip-path="url(#clip_29)">
<path transform="matrix(1,0,0,-1,-87.00827,204.0937)" stroke-width="1.5" stroke-linecap="square" stroke-linejoin="round" fill="none" stroke="#d62728" stroke-opacity=".7" d="M184.36612 48.3875V197.7075"/>
</g>
<g clip-path="url(#clip_30)">
<path transform="matrix(1,0,0,-1,-87.00827,204.0937)" d="M251.48554 179.9352C252.28115 179.9352 253.04428 180.2513 253.60686 180.81388 254.16944 181.37647 254.48554 182.13959 254.48554 182.9352 254.48554 183.7308 254.16944 184.49394 253.60686 185.05652 253.04428 185.6191 252.28115 185.9352 251.48554 185.9352 250.68993 185.9352 249.92679 185.6191 249.36421 185.05652 248.80164 184.49394 248.48554 183.7308 248.48554 182.9352 248.48554 182.13959 248.80164 181.37647 249.36421 180.81388 249.92679 180.2513 250.68993 179.9352 251.48554 179.9352Z" fill="#0072b2"/>
<path transform="matrix(1,0,0,-1,-87.00827,204.0937)" stroke-width="1" stroke-linecap="butt" stroke-linejoin="round" fill="none" stroke="#0072b2" d="M251.48554 179.9352C252.28115 179.9352 253.04428 180.2513 253.60686 180.81388 254.16944 181.37647 254.48554 182.13959 254.48554 182.9352 254.48554 183.7308 254.16944 184.49394 253.60686 185.05652 253.04428 185.6191 252.28115 185.9352 251.48554 185.9352 250.68993 185.9352 249.92679 185.6191 249.36421 185.05652 248.80164 184.49394 248.48554 183.7308 248.48554 182.9352 248.48554 182.13959 248.80164 181.37647 249.36421 180.81388 249.92679 180.2513 250.68993 179.9352 251.48554 179.9352Z"/>
</g>
<g clip-path="url(#clip_31)">
<path transform="matrix(1,0,0,-1,-87.00827,204.0937)" d="M264.3373 159.97264C265.1329 159.97264 265.89604 160.28873 266.45863 160.85132 267.0212 161.4139 267.3373 162.17702 267.3373 162.97264 267.3373 163.76825 267.0212 164.53137 266.45863 165.09395 265.89604 165.65654 265.1329 165.97264 264.3373 165.97264 263.5417 165.97264 262.77857 165.65654 262.21598 165.09395 261.6534 164.53137 261.3373 163.76825 261.3373 162.97264 261.3373 162.17702 261.6534 161.4139 262.21598 160.85132 262.77857 160.28873 263.5417 159.97264 264.3373 159.97264Z" fill="#0072b2"/>
<path transform="matrix(1,0,0,-1,-87.00827,204.0937)" stroke-width="1" stroke-linecap="butt" stroke-linejoin="round" fill="none" stroke="#0072b2" d="M264.3373 159.97264C265.1329 159.97264 265.89604 160.28873 266.45863 160.85132 267.0212 161.4139 267.3373 162.17702 267.3373 162.97264 267.3373 163.76825 267.0212 164.53137 266.45863 165.09395 265.89604 165.65654 265.1329 165.97264 264.3373 165.97264 263.5417 165.97264 262.77857 165.65654 262.21598 165.09395 261.6534 164.53137 261.3373 163.76825 261.3373 162.97264 261.3373 162.17702 261.6534 161.4139 262.21598 160.85132 262.77857 160.28873 263.5417 159.97264 264.3373 159.97264Z"/>
</g>
<g clip-path="url(#clip_32)">
<path transform="matrix(1,0,0,-1,-87.00827,204.0937)" d="M201.49063 140.01007C202.28624 140.01007 203.04936 140.32617 203.61196 140.88875 204.17453 141.45133 204.49063 142.21446 204.49063 143.01007 204.49063 143.80568 204.17453 144.5688 203.61196 145.1314 203.04936 145.69397 202.28624 146.01007 201.49063 146.01007 200.69503 146.01007 199.93189 145.69397 199.36931 145.1314 198.80673 144.5688 198.49063 143.80568 198.49063 143.01007 198.49063 142.21446 198.80673 141.45133 199.36931 140.88875 199.93189 140.32617 200.69503 140.01007 201.49063 140.01007Z" fill="#d55e00"/>
<path transform="matrix(1,0,0,-1,-87.00827,204.0937)" stroke-width="1" stroke-linecap="butt" stroke-linejoin="round" fill="none" stroke="#d55e00" d="M201.49063 140.01007C202.28624 140.01007 203.04936 140.32617 203.61196 140.88875 204.17453 141.45133 204.49063 142.21446 204.49063 143.01007 204.49063 143.80568 204.17453 144.5688 203.61196 145.1314 203.04936 145.69397 202.28624 146.01007 201.49063 146.01007 200.69503 146.01007 199.93189 145.69397 199.36931 145.1314 198.80673 144.5688 198.49063 143.80568 198.49063 143.01007 198.49063 142.21446 198.80673 141.45133 199.36931 140.88875 199.93189 140.32617 200.69503 140.01007 201.49063 140.01007Z"/>
</g>
<g clip-path="url(#clip_33)">
<path transform="matrix(1,0,0,-1,-87.00827,204.0937)" d="M235.32875 120.0475C236.12436 120.0475 236.88748 120.3636 237.45008 120.92618 238.01265 121.48876 238.32875 122.25189 238.32875 123.0475 238.32875 123.84311 238.01265 124.60624 237.45008 125.16882 236.88748 125.7314 236.12436 126.0475 235.32875 126.0475 234.53314 126.0475 233.77 125.7314 233.20743 125.16882 232.64485 124.60624 232.32875 123.84311 232.32875 123.0475 232.32875 122.25189 232.64485 121.48876 233.20743 120.92618 233.77 120.3636 234.53314 120.0475 235.32875 120.0475Z" fill="#d55e00"/>
<path transform="matrix(1,0,0,-1,-87.00827,204.0937)" stroke-width="1" stroke-linecap="butt" stroke-linejoin="round" fill="none" stroke="#d55e00" d="M235.32875 120.0475C236.12436 120.0475 236.88748 120.3636 237.45008 120.92618 238.01265 121.48876 238.32875 122.25189 238.32875 123.0475 238.32875 123.84311 238.01265 124.60624 237.45008 125.16882 236.88748 125.7314 236.12436 126.0475 235.32875 126.0475 234.53314 126.0475 233.77 125.7314 233.20743 125.16882 232.64485 124.60624 232.32875 123.84311 232.32875 123.0475 232.32875 122.25189 232.64485 121.48876 233.20743 120.92618 233.77 120.3636 234.53314 120.0475 235.32875 120.0475Z"/>
</g>
<g clip-path="url(#clip_34)">
<path transform="matrix(1,0,0,-1,-87.00827,204.0937)" d="M216.32299 100.08493C217.11859 100.08493 217.88172 100.40103 218.4443 100.963619 219.00688 101.52619 219.32299 102.28932 219.32299 103.08493 219.32299 103.88054 219.00688 104.64368 218.4443 105.20625 217.88172 105.76884 217.11859 106.08493 216.32299 106.08493 215.52738 106.08493 214.76424 105.76884 214.20166 105.20625 213.63909 104.64368 213.32299 103.88054 213.32299 103.08493 213.32299 102.28932 213.63909 101.52619 214.20166 100.963619 214.76424 100.40103 215.52738 100.08493 216.32299 100.08493Z" fill="#009e73"/>
<path transform="matrix(1,0,0,-1,-87.00827,204.0937)" stroke-width="1" stroke-linecap="butt" stroke-linejoin="round" fill="none" stroke="#009e73" d="M216.32299 100.08493C217.11859 100.08493 217.88172 100.40103 218.4443 100.963619 219.00688 101.52619 219.32299 102.28932 219.32299 103.08493 219.32299 103.88054 219.00688 104.64368 218.4443 105.20625 217.88172 105.76884 217.11859 106.08493 216.32299 106.08493 215.52738 106.08493 214.76424 105.76884 214.20166 105.20625 213.63909 104.64368 213.32299 103.88054 213.32299 103.08493 213.32299 102.28932 213.63909 101.52619 214.20166 100.963619 214.76424 100.40103 215.52738 100.08493 216.32299 100.08493Z"/>
</g>
<g clip-path="url(#clip_35)">
<path transform="matrix(1,0,0,-1,-87.00827,204.0937)" d="M225.64374 80.12237C226.43935 80.12237 227.20249 80.43846 227.76506 81.001049 228.32764 81.56363 228.64374 82.32676 228.64374 83.12237 228.64374 83.91798 228.32764 84.68111 227.76506 85.24369 227.20249 85.80627 226.43935 86.12237 225.64374 86.12237 224.84813 86.12237 224.085 85.80627 223.52243 85.24369 222.95984 84.68111 222.64374 83.91798 222.64374 83.12237 222.64374 82.32676 222.95984 81.56363 223.52243 81.001049 224.085 80.43846 224.84813 80.12237 225.64374 80.12237Z" fill="#009e73"/>
<path transform="matrix(1,0,0,-1,-87.00827,204.0937)" stroke-width="1" stroke-linecap="butt" stroke-linejoin="round" fill="none" stroke="#009e73" d="M225.64374 80.12237C226.43935 80.12237 227.20249 80.43846 227.76506 81.001049 228.32764 81.56363 228.64374 82.32676 228.64374 83.12237 228.64374 83.91798 228.32764 84.68111 227.76506 85.24369 227.20249 85.80627 226.43935 86.12237 225.64374 86.12237 224.84813 86.12237 224.085 85.80627 223.52243 85.24369 222.95984 84.68111 222.64374 83.91798 222.64374 83.12237 222.64374 82.32676 222.95984 81.56363 223.52243 81.001049 224.085 80.43846 224.84813 80.12237 225.64374 80.12237Z"/>
</g>
<g clip-path="url(#clip_36)">
<path transform="matrix(1,0,0,-1,-87.00827,204.0937)" d="M240.2448 60.159799C241.0404 60.159799 241.80355 60.4759 242.36612 61.03848 242.9287 61.60106 243.2448 62.36419 243.2448 63.159799 243.2448 63.95541 242.9287 64.71854 242.36612 65.28112 241.80355 65.843708 241.0404 66.1598 240.2448 66.1598 239.44919 66.1598 238.68607 65.843708 238.12348 65.28112 237.5609 64.71854 237.2448 63.95541 237.2448 63.159799 237.2448 62.36419 237.5609 61.60106 238.12348 61.03848 238.68607 60.4759 239.44919 60.159799 240.2448 60.159799Z" fill="#009e73"/>
<path transform="matrix(1,0,0,-1,-87.00827,204.0937)" stroke-width="1" stroke-linecap="butt" stroke-linejoin="round" fill="none" stroke="#009e73" d="M240.2448 60.159799C241.0404 60.159799 241.80355 60.4759 242.36612 61.03848 242.9287 61.60106 243.2448 62.36419 243.2448 63.159799 243.2448 63.95541 242.9287 64.71854 242.36612 65.28112 241.80355 65.843708 241.0404 66.1598 240.2448 66.1598 239.44919 66.1598 238.68607 65.843708 238.12348 65.28112 237.5609 64.71854 237.2448 63.95541 237.2448 63.159799 237.2448 62.36419 237.5609 61.60106 238.12348 61.03848 238.68607 60.4759 239.44919 60.159799 240.2448 60.159799Z"/>
</g>
</g>
</svg>
